<svg width="28" height="28" viewBox="0 0 28 28" fill="none" xmlns="http://www.w3.org/2000/svg">
<g clip-path="url(#clip0_43_6717)">
<path fill-rule="evenodd" clip-rule="evenodd" d="M6.7415 15.1108C6.6455 15.0065 6.54875 14.9021 6.45123 14.7984C5.45691 13.7435 4.47079 12.6879 3.55232 11.5641C3.32977 11.292 2.91275 10.7647 2.48145 10.4823C2.17296 10.2804 1.84787 10.186 1.54502 10.2092C1.35206 10.2239 1.067 10.3062 0.907711 10.6666C0.880887 10.7272 0.847375 10.832 0.829396 10.9669C0.80051 11.1851 0.797945 11.579 0.800735 11.6337C0.838217 12.4304 0.877462 13.1924 0.980144 13.9838C1.07453 14.7122 1.12718 15.444 1.23161 16.1717C1.38784 17.2606 1.60683 18.3121 1.95073 19.3589C2.07831 19.7475 2.49763 19.9592 2.88629 19.8316C3.27459 19.704 3.48657 19.2851 3.35899 18.8964C3.04244 17.9323 2.8426 16.9641 2.69907 15.9613C2.59541 15.2402 2.54355 14.5148 2.44993 13.7931C2.38916 13.3236 2.35233 12.865 2.32459 12.4027L2.40451 12.5021C3.34535 13.653 4.35428 14.7347 5.37254 15.8149C5.7535 16.2194 6.1202 16.6343 6.50776 17.0329C6.53826 17.0827 6.67916 17.311 6.75009 17.3903C6.86806 17.5224 6.99884 17.5995 7.11403 17.6403C7.40671 17.7442 7.71002 17.7265 7.99045 17.4068C8.20037 17.1674 8.33361 16.7864 8.34854 16.3241C8.36929 15.6888 8.17084 14.8397 8.13934 14.4515C7.93973 11.995 7.53977 9.53795 7.52554 7.0697C7.52329 6.66068 7.1894 6.33055 6.78038 6.33279C6.37134 6.33541 6.04084 6.66928 6.04345 7.07831C6.05766 9.58367 6.45908 12.0779 6.66163 14.5717C6.67271 14.7043 6.70538 14.8941 6.7415 15.1108Z" fill="#3B3B3B"/>
<path fill-rule="evenodd" clip-rule="evenodd" d="M13.7229 5.32437C12.8722 5.50419 12.0215 5.65544 11.3179 6.19783C10.5818 6.76567 10.1787 7.62424 10.0014 8.59484C9.77531 9.83308 9.92189 11.2583 10.0062 12.273C10.05 12.7984 10.0431 13.5272 10.1625 14.1793C10.2654 14.74 10.4634 15.2476 10.7858 15.6124C11.2926 16.1854 12.1099 16.2822 12.9684 15.9844C13.9603 15.6403 14.9742 14.7816 15.2642 14.2657C15.4649 13.9092 15.3383 13.4568 14.9815 13.2565C14.6251 13.0559 14.173 13.1825 13.9724 13.5389C13.7884 13.8661 13.1118 14.3657 12.4826 14.5842C12.3421 14.6327 12.2038 14.6673 12.0744 14.6711C12.0072 14.6733 11.9397 14.6795 11.8965 14.6309C11.6849 14.3912 11.6253 14.016 11.5796 13.6378C11.5154 13.1106 11.518 12.5635 11.4837 12.1498C11.408 11.2425 11.2575 9.96843 11.4595 8.86106C11.568 8.2673 11.7728 7.71926 12.2234 7.37182C12.7463 6.96868 13.3965 6.90854 14.0292 6.7748C14.4294 6.69047 14.6858 6.2968 14.6011 5.89659C14.5168 5.49639 14.1231 5.24004 13.7229 5.32437Z" fill="#3B3B3B"/>
<path fill-rule="evenodd" clip-rule="evenodd" d="M13.4678 9.22179C12.7995 9.54297 12.086 9.87185 11.3764 10.0867C10.9848 10.2052 10.7631 10.6192 10.8812 11.0107C10.9998 11.4023 11.4137 11.624 11.8053 11.5055C12.5869 11.2691 13.3742 10.9116 14.1098 10.5583C14.4783 10.381 14.634 9.93774 14.4568 9.56919C14.2796 9.20027 13.8367 9.04496 13.4678 9.22179Z" fill="#3B3B3B"/>
<path fill-rule="evenodd" clip-rule="evenodd" d="M22.3877 10.0686C21.8805 9.38758 21.3421 8.71536 20.7686 8.09702C20.7218 8.04678 20.1388 7.51477 19.7868 7.30914C19.5493 7.17056 19.3343 7.13664 19.2071 7.14243C18.837 7.15927 18.6022 7.34735 18.4928 7.68391C18.3881 8.00661 18.339 8.34586 18.3213 8.69376C17.826 7.63967 17.3788 6.55872 17.131 5.43186C17.1105 5.3388 17.0923 5.29483 17.0894 5.28689C16.9984 5.05518 16.8568 4.9708 16.8066 4.93782C16.5595 4.77538 16.3288 4.78891 16.1308 4.86606C16.1066 4.87522 15.573 5.08042 15.6677 5.67854C15.6752 5.72679 15.7431 6.07123 15.7612 6.20536C15.7771 6.32194 15.8192 6.42834 15.881 6.51979C16.3166 8.01055 17.0266 9.43397 17.7067 10.8232C17.8536 11.1234 17.9646 11.4307 18.0314 11.7581C18.0511 11.8537 18.0502 12.0677 18.0664 12.1736C18.094 12.3527 18.1605 12.4752 18.2037 12.5382C18.4282 12.8665 18.723 12.9138 19.0007 12.8466C19.1194 12.8181 19.3576 12.7512 19.5173 12.419C19.8766 11.6729 19.883 10.829 19.8332 9.97605C19.8185 9.72373 19.7972 9.47107 19.7891 9.22205C20.4143 9.90981 20.9939 10.6628 21.5365 11.4135C21.5961 11.496 22.2042 12.2497 22.3702 12.3657C22.7851 12.6569 23.1281 12.4713 23.2767 12.3579C23.5033 12.1846 23.6903 11.8769 23.7804 11.4773C23.8964 10.9604 23.8621 10.2392 23.8698 9.95014C23.9214 8.00471 23.9541 5.97003 23.6141 4.05073C23.5429 3.64786 23.158 3.37896 22.7552 3.45016C22.3523 3.52136 22.0834 3.90661 22.1546 4.30911C22.4773 6.1318 22.4367 8.06406 22.3879 9.91093C22.3868 9.95355 22.3871 10.007 22.3877 10.0686Z" fill="#3B3B3B"/>
<path fill-rule="evenodd" clip-rule="evenodd" d="M25.678 3.66198C25.8805 4.97282 26.084 6.27182 26.1917 7.61457C26.2244 8.02254 26.5819 8.32715 26.9898 8.29443C27.3974 8.26168 27.702 7.90423 27.6693 7.49626C27.5176 5.60247 27.1804 3.79464 26.9163 1.92076C26.8147 1.19649 26.1279 1.26219 26.0857 1.26747C25.9927 1.27908 25.485 1.36055 25.4385 1.9478C25.4356 1.98364 25.4468 2.23873 25.4458 2.33739C25.4433 2.56323 25.4276 2.78323 25.4047 3.00841C25.3782 3.26791 25.4887 3.50989 25.678 3.66198Z" fill="#3B3B3B"/>
<path fill-rule="evenodd" clip-rule="evenodd" d="M27.2057 11.4089C27.2925 11.184 27.2676 10.9208 27.1165 10.7102C26.8777 10.3778 26.4144 10.302 26.0821 10.5408C25.7751 10.7612 25.7054 11.0452 25.7272 11.3981C25.7525 11.8064 26.1048 12.1174 26.5132 12.0918C26.8865 12.0688 27.1784 11.7719 27.2057 11.4089Z" fill="#3B3B3B"/>
<path fill-rule="evenodd" clip-rule="evenodd" d="M12.5075 24.9782C12.4402 24.8145 12.3859 24.6852 12.3728 24.6575C11.7504 23.3365 11.0687 22.0295 10.3178 20.7769C10.1074 20.426 9.65202 20.312 9.30108 20.5224C8.95014 20.7327 8.83612 21.1882 9.04651 21.5391C9.77209 22.7492 10.4304 24.0127 11.032 25.2893C11.0779 25.3866 11.3731 26.2457 11.5966 26.6092C11.7992 26.9382 12.068 27.0658 12.2241 27.0971C12.4721 27.1468 12.8674 27.077 13.2061 26.6697C13.6483 26.1382 14.2602 24.6891 14.3611 24.4486C14.5461 24.006 14.7074 23.54 14.8581 23.0864C15.1437 22.226 15.3276 21.3448 15.497 20.4561C15.5738 20.0541 15.3097 19.6659 14.9076 19.5891C14.5059 19.5127 14.1174 19.7769 14.041 20.1786C13.8837 21.0029 13.7164 21.8211 13.4514 22.6191C13.3122 23.0376 13.1641 23.4684 12.9935 23.8768C12.942 23.9992 12.7405 24.5055 12.5075 24.9782Z" fill="#3B3B3B"/>
</g>
<defs>
<clipPath id="clip0_43_6717">
<rect width="26" height="26" fill="white" transform="translate(1.35255) scale(1.02622) rotate(2.90577)"/>
</clipPath>
</defs>
</svg>
