<svg width="115" height="104" viewBox="0 0 115 104" fill="none" xmlns="http://www.w3.org/2000/svg">
<g clip-path="url(#clip0_43_6606)">
<path d="M23.4856 74.945C22.9075 75.2599 21.338 76.9262 19.9752 77.6686C18.6118 78.4106 16.6101 79.5076 13.0861 82.9817C9.56209 86.4562 5.76802 90.1245 4.97619 91.6499C4.18436 93.1754 4.38936 95.1053 5.20295 96.5962C6.0174 98.0862 8.41408 99.6984 9.14593 100.274C9.87777 100.851 10.5011 100.882 11.3175 100.64C12.134 100.398 46.5522 83.4642 60.4226 74.884C74.2925 66.3038 66.4228 65.3078 63.5514 64.8329C60.68 64.358 72.9162 51.006 70.2008 45.9695C67.4849 40.9334 56.2458 40.6518 53.7136 41.9638C51.1814 43.2757 29.6765 68.664 27.8532 70.7416C26.0298 72.8188 24.0638 74.6301 23.4856 74.945Z" fill="#ECEEEF"/>
<path d="M53.7123 41.963C56.2445 40.6515 67.4837 40.9327 70.1999 45.9687C72.9149 51.0057 60.6787 64.3573 63.5501 64.8321L64.9807 65.0823C68.1365 65.7228 72.1763 67.4355 61.1314 74.4387L60.4213 74.8832C46.5514 83.4634 12.1327 100.398 11.3162 100.64C10.4998 100.881 9.87647 100.849 9.14464 100.274L7.77242 99.236C7.54101 99.0548 7.29935 98.8601 7.05963 98.6558C5.37647 95.7099 5.14447 93.5303 6.36128 92.113C8.85172 89.2127 19.8829 83.2091 25.9657 79.2452L26.6205 78.8132C32.5294 74.8665 38.5432 71.7771 40.7196 70.6719C42.809 69.6109 41.828 68.4157 38.092 70.2034C34.3559 71.991 32.9397 71.9441 30.6201 71.9803C29.887 71.992 29.2271 71.1763 28.2101 70.3285L36.6748 60.4818C43.5648 52.5209 52.1679 42.7637 53.7123 41.963Z" fill="#DADEE0"/>
<path d="M53.7119 41.9631C56.2441 40.6516 67.4832 40.9327 70.1995 45.9688C72.9145 51.0058 60.6783 64.3573 63.5497 64.8326L64.9802 65.0828C68.1361 65.7233 72.1759 67.436 61.131 74.4392L60.4209 74.8837C47.5265 82.8605 16.8722 98.0575 11.9679 100.35C7.89624 96.7359 6.99602 94.5161 9.38505 92.8219C11.6161 91.2402 18.476 87.9854 24.3417 84.8251C30.2074 81.6649 32.5475 80.5442 36.9528 78.1443C41.3581 75.7443 43.7882 73.4948 45.0889 71.6396C46.9475 68.9893 42.8677 66.2283 42.2577 66.6773C41.6476 67.1263 39.0493 68.8909 37.3841 70.1779C35.7188 71.4654 32.2169 72.7371 30.2213 72.4641C29.5219 72.3687 30.3252 69.6728 31.9413 65.9765L40.4048 56.1909C46.3613 49.3781 52.4379 42.6236 53.7119 41.9631Z" fill="#CDD1D2"/>
<path d="M43.7226 62.7366C45.3659 61.7183 53.3949 62.1769 54.448 64.0362C55.5011 65.8955 62.584 72.7227 59.2779 75.3764L58.3276 76.1028C58.2251 76.1788 58.1175 76.2587 58.0041 76.3422L56.4002 77.2793C42.0502 85.575 16.4173 98.2714 11.9694 100.351C11.4211 99.8642 10.9306 99.4029 10.4975 98.965C10.1916 97.8427 11.0466 96.327 15.1001 94.0478L16.9062 93.0707C25.656 88.3977 44.5261 78.6922 46.7991 76.6118C49.1831 74.4299 47.5466 71.5334 48.6741 69.9866C49.8017 68.4399 48.6397 67.8481 46.8696 67.9944C45.0999 68.1406 43.2061 65.8602 43.0214 65.8178C42.8367 65.7751 42.4469 66.0216 42.1701 66.2295C41.4932 66.7377 40.1074 67.8995 38.8122 69.0081L37.955 69.6308C37.1275 70.2165 36.411 70.6693 36.0071 70.7926C34.5815 71.2267 42.0792 63.7545 43.7226 62.7366Z" fill="#BBC2C5"/>
<path d="M53.7131 41.9631C56.2453 40.6517 67.4844 40.9328 70.2007 45.9688C72.9157 51.0058 60.6795 64.3574 63.5509 64.8322L64.9814 65.0824C68.1373 65.7229 72.1771 67.4356 61.1322 74.4388L60.4221 74.8833C46.5522 83.4635 12.1334 100.398 11.317 100.64C10.5006 100.882 9.87723 100.849 9.1454 100.274L8.04795 99.4483C7.58356 99.0932 7.0555 98.6709 6.5671 98.2185L6.06481 97.4081C5.83851 97.0343 5.65498 96.7154 5.53825 96.4924C4.93842 95.3312 5.07405 94.6479 5.78897 95.6661L5.95098 95.9106C6.80502 97.2685 9.21238 99.3215 9.43486 99.3882C9.63618 99.4489 13.2881 97.2111 16.3383 95.6028L26.1507 90.5822C30.6878 88.2316 35.7809 85.5453 38.8619 83.7791L39.4504 83.4386C44.8658 80.2723 52.6146 75.0883 52.0802 74.6626L51.5635 74.1324C50.573 73.063 49.4528 71.5237 49.9324 70.656L51.1778 68.5435C51.9432 67.228 52.7116 65.7955 52.5369 65.4713C52.2456 64.9314 49.1186 67.1523 47.014 67.2722C44.9094 67.3921 43.7576 64.3779 42.7079 65.2198C41.6583 66.0616 36.7867 70.4809 35.8477 71.0253C34.9087 71.5696 33.8681 71.9889 33.6164 72.5562C33.3647 73.1235 35.0479 72.9669 35.5192 72.944C35.9905 72.9212 36.9135 73.7197 36.8477 74.7358C36.7818 75.752 35.6811 78.0273 34.2402 78.7559C32.7992 79.4846 31.4147 80.0051 30.8417 79.3292C30.4595 78.8789 30.2951 78.2855 30.3483 77.5494L28.9006 77.8052C28.2978 77.9028 26.2291 76.8636 25.7549 76.8353C25.2807 76.807 22.7861 76.9112 22.0081 77.0417C21.3597 77.1506 20.9812 77.4583 20.4906 77.4179L20.4142 77.4015C21.5211 76.6761 22.6778 75.5201 23.2844 75.0748L23.4846 74.943C23.9803 74.6734 25.4953 73.3039 27.0661 71.6097L27.8517 70.7392C29.676 68.6634 51.1809 43.2755 53.7131 41.9631Z" fill="#9998A7"/>
<path d="M61.8358 51.0122C63.0573 50.9146 64.6387 48.9872 64.1262 47.7652C63.6137 46.5433 59.7808 45.853 58.6511 45.9486C57.5214 46.0443 56.6676 46.545 57.9676 47.986C59.2677 49.427 60.6142 51.1099 61.8358 51.0122Z" fill="#A3857C"/>
<path d="M59.0442 47.1411C60.4793 47.3349 62.55 47.4873 62.8693 48.1068C63.1885 48.7264 62.7606 49.4373 61.665 49.5539C60.5689 49.671 58.5233 46.6474 57.7621 46.6308C57.0014 46.6137 54.885 46.971 55.475 48.1032C56.0646 49.2355 61.4333 51.9297 61.9751 52.1475C62.5163 52.3653 65.4077 50.5852 65.3972 49.5391C65.3868 48.493 66.1891 46.348 63.9906 45.9649C61.7922 45.5814 57.6097 46.9472 59.0442 47.1411Z" fill="#967D73"/>
<path d="M54.7457 62.0051C55.0909 61.6746 56.566 60.0872 57.817 58.4795C58.0619 58.1647 57.204 57.625 57.7764 56.9141C58.3489 56.2032 58.9945 56.9038 59.1537 56.6452C59.304 56.4008 59.3226 56.4389 59.4209 56.2303C59.4849 56.1096 59.0516 55.735 59.2039 55.2271C59.3562 54.7195 59.647 54.5481 59.6291 54.3764C59.5052 53.1972 57.6751 52.5817 57.1189 52.2848C56.4728 51.9399 53.8721 52.1185 52.8987 53.1023C51.9252 54.0862 49.9859 56.4363 51.0778 56.685C52.1697 56.9336 53.4203 56.9098 54.2564 58.5218C55.0926 60.1339 54.1077 62.6164 54.7457 62.0051Z" fill="#BBBCC1"/>
<path d="M72.4623 28.0403C68.9759 30.152 66.279 33.2557 69.5699 35.5702C71.7641 37.1132 74.7092 38.8728 78.4052 40.849L93.8494 26.5533C93.8094 26.3311 93.7774 26.2053 93.7537 26.1754C91.817 23.7515 90.5468 22.2979 89.7393 21.3001C88.9169 20.2839 87.4482 18.6431 85.3331 16.3777C83.8774 19.2141 82.2475 21.3841 80.4432 22.8891C77.7372 25.1463 75.9491 25.9286 72.4623 28.0403Z" fill="#65656E"/>
<path d="M86.0546 21.0609C86.0195 21.7469 85.6342 22.6782 84.2786 24.0665C82.9231 25.4554 77.3273 28.1764 75.5084 30.2669C73.6894 32.3574 73.6417 33.8541 74.4838 34.4451C75.3258 35.0362 81.2963 28.6672 82.9422 26.7364C84.5882 24.8056 85.2942 24.0149 86.1914 23.7597C87.0881 23.5046 88.6777 24.0897 88.2116 23.3516C87.7446 22.6134 86.0898 20.3749 86.0546 21.0609Z" fill="#737378"/>
<path d="M85.3336 16.3775L86.5253 17.6618C87.6392 18.8712 88.5208 19.8559 89.1692 20.6153L92.3142 24.3981C92.7474 24.9251 93.2262 25.514 93.7542 26.1752L93.7806 26.2369L93.8499 26.5531L78.4057 40.8487C76.8299 40.0064 75.3901 39.2029 74.0876 38.4392C74.101 37.4863 74.3315 36.555 74.5503 36.6039C74.9115 36.6847 75.8563 36.0418 76.1018 35.7593L80.8236 29.9493C82.7983 27.5311 84.7485 25.172 85.2331 24.6923C85.9635 23.9688 86.5641 23.9284 87.1006 24.0223L88.8155 24.3944C89.4823 24.5296 90.1766 24.6621 90.363 24.6742C90.6446 24.6924 87.5791 22.0219 86.3858 20.4165L86.1957 20.145C85.1848 18.5915 84.6636 19.9142 84.3333 20.6634C84.003 21.4126 78.3815 26.8582 74.3989 29.5767C71.3121 31.6836 71.783 35.3657 72.2711 37.3462C71.2669 36.7225 70.3691 36.1327 69.5708 35.5713C66.2795 33.2568 68.9764 30.1531 72.4632 28.0414C75.9496 25.9297 77.7381 25.1474 80.4441 22.8902C82.2475 21.3844 83.8775 19.2139 85.3336 16.3775Z" fill="#504F51"/>
<path d="M58.2271 74.5275C54.6712 74.4486 51.478 72.9581 50.7008 71.7305C49.9235 70.5029 49.81 68.8583 50.8066 67.7451C51.8032 66.6319 61.1358 55.6544 62.5747 53.5223C64.0132 51.3902 65.6195 48.8626 65.0733 47.3916C64.5271 45.9207 62.043 45.8604 59.9658 45.9741C57.8886 46.0877 54.873 45.9087 53.4753 46.0955C52.0777 46.2823 53.4393 36.712 53.7627 34.39C54.0857 32.068 54.2109 30.5958 58.5683 28.5751C62.9252 26.5544 67.5547 25.9714 70.0089 25.0316C72.4625 24.0913 76.2088 22.4994 75.94 20.5539C75.6711 18.6088 75.3563 15.5235 75.7484 13.2272C76.1404 10.9309 76.9356 10.1806 77.715 9.71237C78.4944 9.24411 78.9591 9.18053 79.1266 9.35742C79.2941 9.5343 79.5528 9.6629 79.5611 9.84072C79.5693 10.0185 79.4296 10.541 79.5241 10.8398C79.6187 11.1385 81.8651 13.3234 82.7593 14.0976C83.6535 14.8714 85.8058 16.06 86.0691 16.2883C86.3323 16.5166 86.9757 17.1319 86.7731 17.359C86.5705 17.5862 86.0605 17.7096 85.9285 18.1099C85.7965 18.5102 85.9211 20.722 84.8627 22.5674C83.8042 24.4124 76.0897 28.2129 74.3897 29.1862C72.6896 30.1591 71.0449 31.9572 71.5298 33.9378C72.0148 35.9183 76.0515 36.605 78.2176 37.1397C80.3838 37.6744 90.1331 41.9348 90.3224 43.1638C90.5117 44.3927 78.4884 58.5875 73.7365 62.8969C68.9846 67.2063 61.783 74.6068 58.2271 74.5275Z" fill="#BAB3DD"/>
<path d="M58.5805 74.1263C55.0246 74.0475 52.2479 72.7071 51.4706 71.4795C50.6934 70.2519 50.6748 68.8598 51.6713 67.7466C52.6679 66.6334 62.0199 55.8046 63.4588 53.6725C64.8973 51.5404 66.2598 48.6638 65.7136 47.1924C65.1674 45.7215 62.8789 45.3538 60.8021 45.467C58.7254 45.5801 55.0691 45.6002 53.6719 45.787C52.2747 45.9737 53.4402 36.7108 53.7637 34.3888C54.0867 32.0668 54.2119 30.5947 58.5692 28.574C62.9262 26.5533 67.5557 25.9703 70.0098 25.0304C72.4635 24.0902 76.2097 22.4983 75.9409 20.5528C75.6721 18.6077 75.3573 15.5223 75.7493 13.2261C76.1414 10.9298 76.9365 10.1795 77.716 9.71126C78.4954 9.243 78.9601 9.17942 79.1275 9.3563C79.295 9.53318 79.5538 9.66178 79.562 9.8396C79.5703 10.0174 79.4305 10.5399 79.5251 10.8386C79.6197 11.1374 81.8661 13.3223 82.7603 14.0965C83.6545 14.8703 85.8068 16.0589 86.07 16.2872C86.3332 16.5155 86.7179 16.8335 86.5154 17.0607C86.3128 17.2878 85.8027 17.4113 85.6707 17.8116C85.5387 18.2119 85.6633 20.4236 84.6049 22.2691C83.5465 24.114 75.832 27.9145 74.1319 28.8879C72.4319 29.8612 70.7871 31.6589 71.2721 33.6394C71.7571 35.62 75.5727 36.5276 77.7389 37.0628C79.9051 37.5975 89.913 42.1551 90.1023 43.3841C90.2916 44.613 78.4893 58.5864 73.7374 62.8958C68.9855 67.2052 62.1363 74.2052 58.5805 74.1263Z" fill="#3B3B3B"/>
<path d="M54.05 69.484C54.3392 71.7085 57.659 71.7426 59.215 72.3832C60.0335 72.7205 61.3169 72.8004 62.4285 72.6118C60.9517 73.5628 59.6237 74.1494 58.5799 74.1264C55.0241 74.0475 52.2473 72.7072 51.4701 71.4796C50.6928 70.252 50.6742 68.8598 51.6708 67.7466L55.1113 63.772C56.1077 62.6098 57.2149 61.3115 58.2929 60.0356C55.6823 64.0401 53.863 68.044 54.05 69.484ZM86.5578 40.9224L85.9029 40.1955C87.231 41.6501 88.4715 43.0669 89.6233 44.446C87.4541 47.9163 78.5704 58.3302 74.2181 62.4499L73.7369 62.8967C71.0699 65.3155 67.7424 68.5816 64.7076 70.9678L64.9377 70.0832C65.8522 66.3779 67.8707 56.6687 69.4216 53.5708C70.6308 51.1562 76.0134 46.7713 85.5703 40.4164C85.9111 40.5856 86.2403 40.7552 86.5578 40.9224ZM58.4047 28.6511L58.3045 28.8283C56.4202 32.2348 58.2754 33.6369 59.7202 34.7725C61.4304 36.117 61.6616 40.1516 67.2268 41.3822L67.7983 41.5684C71.9687 42.7068 68.0463 48.2764 63.8732 53.0327C65.1429 50.9949 66.2057 48.5202 65.7126 47.192C65.2054 45.826 63.196 45.4113 61.2485 45.4498L59.5345 45.5206C57.4689 45.5925 54.814 45.6339 53.6704 45.7866C52.3767 45.9598 53.2803 38.0308 53.6778 35.0121L53.8561 33.7245C54.1482 31.7987 54.6279 30.4346 58.4047 28.6511Z" fill="#7152CB"/>
<path d="M69.3626 40.5635C74.2487 41.4218 76.5594 44.2801 73.4898 49.4704C71.5887 52.6841 64.2832 58.8178 51.5729 67.8708L56.2758 62.4112C59.0454 59.1654 62.2122 55.3958 63.2746 53.9334L63.4582 53.6726C64.8967 51.5406 66.2592 48.6639 65.713 47.1925C65.2058 45.8265 63.1964 45.4119 61.2489 45.4504L59.5349 45.5212C57.4693 45.593 54.8144 45.6344 53.6708 45.7871C53.0244 45.8735 53.2883 40.8106 53.4021 38.4745C56.2909 39.8604 58.8025 40.543 60.9371 40.523C64.1393 40.4924 67.0859 40.1635 69.3626 40.5635ZM57.4952 32.8169L58.4228 32.706C62.1969 32.3449 68.2306 32.7248 68.1605 34.1921C68.0984 35.4968 58.1322 36.4179 53.3742 37.5126L53.6736 35.051L53.88 33.5777C55.3947 33.1835 56.6643 32.9391 57.4952 32.8169Z" fill="#674DC5"/>
<path d="M77.1859 10.099C78.7313 11.9793 79.7549 13.4114 80.2564 14.3959L81.1555 16.4071C82.1244 18.6702 83.1834 21.7016 81.8745 23.282C80.1915 25.3138 76.1961 26.6113 73.1854 28.2129C70.1747 29.8146 67.5786 31.835 65.2005 31.9689C62.8228 32.1031 60.7541 31.9327 58.7836 32.075C57.7558 32.149 56.0424 33.2217 53.6442 35.2925L53.8576 33.7168C54.1525 31.7676 54.6462 30.3932 58.5678 28.5746C62.9247 26.5539 67.5542 25.9709 70.0083 25.031L71.3183 24.5079C73.5992 23.5501 76.1633 22.1747 75.9394 20.5534C75.6706 18.6083 75.3558 15.5229 75.7479 13.2267C76.0419 11.5041 76.5626 10.6518 77.1335 10.1357L77.1859 10.099Z" fill="#DFA76D"/>
<path d="M76.1081 11.7876C77.0792 11.5571 77.7949 11.7455 78.1428 12.4996C80.3669 17.3176 80.4858 19.9329 78.8668 23.0492C77.3377 25.9927 72.8033 26.9325 68.6986 28.6314L67.9793 28.9395C63.699 30.8431 59.2519 30.8412 57.8785 31.4746C57.0464 31.8587 55.8041 32.9454 54.1524 34.7347L53.6443 35.2925L53.8577 33.7168L53.9678 33.087C54.3049 31.4566 55.0821 30.1911 58.5679 28.5745C62.9249 26.5539 67.5544 25.9709 70.0085 25.031L71.3185 24.5079L72.181 24.1297C74.1966 23.2027 76.1353 21.9719 75.9396 20.5538C75.6708 18.6088 75.356 15.5234 75.7481 13.2271C75.8132 12.8442 75.8901 12.5045 75.9756 12.2019L76.1081 11.7876Z" fill="#F4C782"/>
<path d="M79.1262 9.35683C79.2936 9.53371 79.5524 9.66231 79.5607 9.84013C79.5671 9.97349 79.4899 10.3006 79.4906 10.5821L79.6226 11.0335L79.1988 11.9601C78.7396 13.0101 78.594 14.0728 78.8964 15.5963C79.2476 17.3648 79.121 19.4045 77.7374 21.637C76.3539 23.8694 74.1549 25.2793 70.2335 26.5772C68.7498 27.0207 67.0518 27.5479 65.1396 28.1578C62.2716 29.0728 60.6614 29.6669 59.207 30.293C57.1702 31.1694 56.1062 32.2384 55.0079 33.3669C54.7426 33.6396 54.1885 33.4541 53.9155 33.3849L54.0423 32.7752C54.4169 31.2912 55.3076 30.0864 58.5683 28.5745C62.9252 26.5538 67.5547 25.9708 70.0089 25.031L71.3188 24.5079C73.5998 23.5501 76.1638 22.1746 75.94 20.5533C75.6711 18.6082 75.3563 15.5229 75.7484 13.2266C76.1404 10.9303 76.9356 10.18 77.715 9.71177C78.4936 9.24353 78.9587 9.17995 79.1262 9.35683Z" fill="#9F4C0B"/>
<path d="M79.126 9.35685C79.2934 9.53373 79.5522 9.66233 79.5605 9.84015C79.5669 9.97351 79.4897 10.3006 79.4905 10.5821L79.5235 10.8392L79.0997 11.7658C78.6405 12.8158 78.3399 13.8024 78.5772 15.1958C78.8818 16.9873 78.9457 19.4257 77.3081 21.6666C75.7727 23.7671 73.9826 25.0405 70.0612 26.3384L65.5883 27.7462C62.7202 28.6612 60.3604 29.4645 58.9056 30.0906C56.8688 30.967 55.851 31.9738 54.7528 33.1023C54.4874 33.3751 54.1887 33.4537 53.9157 33.3849L54.0425 32.7752C54.4172 31.2911 55.3078 30.0864 58.5685 28.5745C62.9255 26.5538 67.555 25.9708 70.0091 25.0309L71.3191 24.5078C73.6 23.55 76.1641 22.1746 75.9402 20.5533C75.6714 18.6082 75.3566 15.5228 75.7486 13.2266C76.1407 10.9303 76.9358 10.18 77.7153 9.71177C78.4934 9.24355 78.9585 9.17997 79.126 9.35685Z" fill="#FBD47F"/>
<path d="M79.1266 9.35698C79.2941 9.53386 79.5529 9.66246 79.5611 9.84028C79.5675 9.97364 79.4903 10.3007 79.4911 10.5822L79.5242 10.8393L79.1004 11.7659C78.6412 12.8159 78.3406 13.8025 78.5779 15.1959C78.8825 16.9874 78.9464 19.4259 77.3088 21.6667C75.7734 23.7672 73.9833 25.0406 70.0619 26.3385L65.5889 27.7463L63.7565 28.3393C61.7169 29.0098 60.0375 29.6038 58.9062 30.0908C56.8695 30.9672 55.8517 31.974 54.7535 33.1025C54.6536 33.2054 54.5489 33.2807 54.4425 33.3308C54.8544 32.4787 55.6414 31.1976 57.1781 30.3392C59.4454 29.0724 64.3335 27.3746 67.8558 26.4535L68.6424 26.2553C72.1837 25.4001 74.835 23.8317 76.2612 22.4636C77.6875 21.0955 78.3494 18.2565 78.34 16.9895C78.3311 15.7226 77.2633 14.1457 78.0136 12.2501C78.5978 10.7748 78.72 9.81986 78.4456 9.35087C78.7965 9.22971 79.0205 9.24563 79.1266 9.35698Z" fill="#F4AA5A"/>
<path d="M80.5904 40.1876L74.1298 37.1868C72.9057 36.6064 72.1892 36.2349 71.7936 35.9684C69.9916 34.755 69.2896 32.3099 70.9116 30.4001C71.807 29.3458 73.3775 28.2529 75.9654 26.7679L80.335 24.3281L80.5796 24.1874C83.1802 22.6813 84.471 20.9495 84.6655 19.0691L84.6911 18.6326C84.7118 17.1709 84.9965 16.3745 85.7011 16.3516C85.8762 16.3456 86.0233 16.4845 86.0293 16.661C86.0334 16.7935 85.9572 16.9102 85.8451 16.9622L85.7224 16.9913C85.5268 16.9978 85.3426 17.5118 85.3267 18.6414C85.2941 20.9359 83.879 23.0151 80.8968 24.7422L77.0067 26.912C74.0483 28.5737 72.3045 29.7453 71.3949 30.8162C70.0525 32.3966 70.6319 34.4147 72.1467 35.4353C72.5 35.6734 73.1761 36.0241 74.3169 36.5667L80.3415 39.3617L83.0964 40.6883C86.9709 42.6077 88.3089 46.4116 87.4345 48.8781C86.9324 50.2942 67.7152 69.3304 65.344 70.752C63.7592 71.7019 61.758 72.7872 59.1076 74.0291L55.4684 72.928C54.1985 72.5338 53.3902 72.2659 53.0386 72.1227C51.6219 71.5451 50.8366 69.3779 52.1666 67.9692L53.4915 66.4995C56.6685 62.9013 63.4114 54.9711 64.6461 53.2555C66.6135 50.5223 67.4683 48.2556 66.8644 46.8386C66.0063 44.8234 65.0406 44.2021 62.0508 44.3191L59.9042 44.4255C57.8037 44.5475 55.1892 44.7431 52.0623 45.0115C49.9773 45.1906 51.0118 44.6599 55.1652 43.4195C57.9142 43.2053 60.2068 43.1627 61.9377 43.0743C65.3875 42.8988 67.1157 43.7368 68.0098 46.3162C68.6179 48.0707 68.2453 50.8426 65.9846 53.7285L64.6898 54.2511C62.3145 57.2836 54.3675 66.566 52.6274 68.4098C51.6416 69.4543 52.2394 71.1049 53.2769 71.5279L53.8478 71.7358C54.7795 72.0565 56.5572 72.6205 59.0551 73.4344L61.0146 72.4269C62.5627 71.6148 63.8974 70.8728 65.0193 70.2005C67.2759 68.8482 86.3944 49.9094 86.8366 48.6612C87.606 46.4902 86.39 43.032 82.8168 41.2619L82.1707 40.9444C81.6679 40.7016 81.1443 40.45 80.5904 40.1876Z" fill="#5A37B5"/>
<path d="M55.164 43.4209C57.913 43.2066 60.2056 43.164 61.9365 43.0756C65.3863 42.9001 67.1145 43.7382 68.0086 46.3175C68.6167 48.0721 68.244 50.844 65.9833 53.7299L64.6885 54.2525L63.5863 55.6235C63.2477 56.0375 63.0676 56.228 62.6648 56.7128C62.6207 56.7852 63.4823 57.9027 62.8123 58.4314C62.1423 58.9601 61.5857 58.0412 61.5052 58.1207C61.3832 58.2841 61.2725 58.4117 61.0355 58.6934C60.97 58.7944 61.9018 59.6003 61.2785 60.3272C60.6553 61.0541 59.8822 60.0436 59.7084 60.2487C58.4449 61.7408 57.3645 63.014 56.1819 64.383C54.4486 66.0198 52.8325 67.6196 51.587 68.9762C51.6856 68.6201 51.8747 68.2769 52.1649 67.9697L53.4898 66.4999L57.3378 62.0605C60.418 58.4627 63.8047 54.4227 64.6444 53.256C66.6118 50.5227 67.4666 48.256 66.8627 46.8391C66.0046 44.8239 65.0389 44.2025 62.0491 44.3196L59.9025 44.4259L58.2306 44.5314C57.0517 44.6106 55.745 44.7086 54.3094 44.8246L52.0601 45.0124C49.9766 45.1924 51.0106 44.6617 55.164 43.4209Z" fill="#4A27A6"/>
<path d="M58.43 57.2009L58.553 57.1674C59.0093 57.0955 60.2909 58.4153 60.7325 59.0247C61.174 59.6337 61.2134 59.9086 60.9199 60.1359C60.6263 60.3632 60.2233 59.9445 60.0268 59.582C59.8298 59.2194 58.9558 58.4472 58.7539 58.297C58.552 58.1468 58.3548 58.1611 58.233 57.9473C58.1107 57.7335 58.0975 57.2392 58.5534 57.1674L58.43 57.2009ZM60.026 55.2258L60.1489 55.1922C60.6053 55.1204 61.8869 56.4401 62.3284 57.0496C62.77 57.6586 62.8094 57.9334 62.5158 58.1607C62.2223 58.388 61.8192 57.9694 61.6227 57.6068C61.4258 57.2442 60.5517 56.472 60.3498 56.3219C60.1479 56.1717 59.9507 56.186 59.8289 55.9721C59.7067 55.7583 59.6934 55.2641 60.1494 55.1922L60.026 55.2258Z" fill="#9053DC"/>
<path d="M58.3852 57.2221L58.553 57.1674C58.7754 57.1325 59.1942 57.4283 59.6157 57.8113L59.188 58.6701L58.8564 58.3788C58.8133 58.3433 58.7785 58.3151 58.7534 58.2966C58.5515 58.1464 58.3543 58.1607 58.2325 57.9468C58.1452 57.794 58.1136 57.4982 58.2685 57.3157L58.3852 57.2221ZM59.8991 55.1214L60.0664 55.0631C60.2501 55.0344 60.5813 55.252 60.9399 55.5623C60.7666 55.8119 60.5926 56.0813 60.4174 56.3701L60.3494 56.3219C60.1475 56.1717 59.8809 56.1229 59.7587 55.9091C59.6714 55.7563 59.6329 55.4265 59.7841 55.2243L59.8991 55.1214Z" fill="#8343D1"/>
<path d="M61.9812 53.5847C62.651 53.6878 63.3543 53.5534 63.9899 53.0649C64.6255 52.5764 65.6618 51.3207 66.1798 50.1128C66.6979 48.9049 66.7186 48.4568 66.7642 47.7593C66.8097 47.0617 65.6218 45.1445 64.6007 44.8343C63.5796 44.5241 64.8081 45.1723 65.2534 46.2879C65.6984 47.4036 65.5356 49.6284 64.8087 50.7633C64.0823 51.8982 61.3119 53.4815 61.9812 53.5847Z" fill="#8A532D"/>
<path d="M62.915 53.5356C63.4064 53.4118 64.5361 52.392 65.2872 51.2168C66.0382 50.0417 66.6231 48.2313 66.6001 47.6393C66.5771 47.0474 65.5995 44.9064 63.9534 44.6131C62.3074 44.3197 56.8406 44.763 55.8652 44.915C55.2153 45.0163 54.7359 45.0947 54.4271 45.1498C56.7811 46.2965 58.0989 46.9046 58.3794 46.9741C58.8007 47.0787 60.0464 47.0954 61.0619 47.1284C62.0774 47.1613 63.4943 46.8903 63.8354 47.5676C64.1765 48.245 63.9587 48.5428 63.7814 48.9342C63.604 49.3255 62.9033 50.4825 62.3899 50.727C61.8765 50.972 61.1635 50.7286 60.5454 50.2515C59.9273 49.7744 59.2599 48.8505 58.3323 48.4892C57.714 48.2482 57.2302 48.0151 56.8819 47.7899L53.1994 45.3362L50.1767 50.2723C52.2877 50.6536 53.6253 50.8275 54.1895 50.7946C55.0356 50.7451 55.5157 50.6199 55.8672 50.7047C56.2188 50.7895 57.5518 50.9465 57.7218 51.2033C57.8918 51.4602 58.0432 51.7806 58.2583 51.911C58.4734 52.0414 59.9746 52.8092 60.8998 53.2767C61.8241 53.7442 62.4237 53.6593 62.915 53.5356Z" fill="#C28D59"/>
<path d="M50.1768 50.272L53.1995 45.3359L56.8819 47.7896C56.942 47.8282 57.0062 47.8676 57.0739 47.9068C55.213 48.4319 54.0034 48.9663 53.4467 49.5098C53.0419 49.9048 53.0197 50.3219 53.3801 50.7612C52.7679 50.7012 51.8944 50.573 50.7636 50.3764L50.1768 50.272ZM54.4272 45.1495L55.8653 44.9147C56.3226 44.8432 57.7664 44.7081 59.341 44.6151C58.8933 45.4624 58.7382 46.0051 58.8723 46.2433C59.0136 46.4939 59.2655 46.7738 59.6276 47.0822L59.019 47.0518C58.7427 47.033 58.5171 47.0081 58.379 46.9742L58.1521 46.8945C57.6308 46.6865 56.3888 46.1048 54.4272 45.1495Z" fill="#BD7E59"/>
<path d="M54.5975 50.3855C53.7637 50.2295 53.44 49.9644 54.0529 49.9061C54.6658 49.8478 56.9451 50.4883 57.2752 50.6155C57.6053 50.7428 58.5689 51.456 59.3744 51.9888L59.6448 52.1755C60.3511 52.6903 61.6408 53.4432 62.6785 53.1611C63.7163 52.879 64.5521 51.8181 65.0618 50.9549C65.5714 50.0913 66.5285 48.33 66.1892 46.9978C66.0412 46.4174 65.6255 45.6376 64.9126 45.0245C65.9721 45.7477 66.5815 47.173 66.5997 47.6393C66.6227 48.2317 66.0374 50.0416 65.2868 51.2168C64.5362 52.3919 63.4064 53.4117 62.9147 53.5355C62.4233 53.6592 61.8233 53.7441 60.8985 53.2766L58.2571 51.9109C58.1493 51.8455 58.0579 51.7328 57.9722 51.6046L57.721 51.2033C57.551 50.9464 56.2184 50.7894 55.8664 50.7046C55.705 50.6656 55.5165 50.6711 55.2781 50.6929L54.8821 50.4872C54.7685 50.4346 54.6733 50.3998 54.5975 50.3855Z" fill="#E1AE86"/>
<path d="M59.0251 48.8811C59.6132 49.3133 60.0533 49.8027 60.5059 50.1523C61.124 50.6294 61.8299 50.7899 62.3433 50.5449C62.7925 50.3307 63.3639 49.5996 63.6239 49.113L63.7137 48.9334C63.8911 48.542 63.9684 47.9618 63.8351 47.568C63.7973 47.4558 63.7039 47.3814 63.6051 47.317C63.9175 47.4354 64.1582 47.6703 64.2172 47.9162C64.3583 48.5049 64.128 49.1826 63.2747 50.2419C62.4214 51.3011 61.6499 51.1125 60.8893 50.6997C60.5848 50.5343 60.2649 50.2341 59.9488 49.8999L59.0251 48.8811ZM56.5237 50.8212L55.8661 50.7042C55.5145 50.6194 55.0344 50.7446 54.1883 50.794C53.7372 50.8203 52.7908 50.7141 51.3494 50.4755L50.1755 50.2717L50.7085 49.4123L53.252 50.1012C53.5045 50.1859 54.9434 50.2744 55.5744 50.4241C55.8315 50.4853 56.1684 50.629 56.5237 50.8212Z" fill="#925728"/>
<path d="M51.3202 18.2891C50.9422 18.1134 50.194 18.2983 49.5986 18.8723C49.0032 19.4463 46.0634 25.7923 45.5767 26.4623C45.4612 26.6629 45.385 26.8366 45.3481 26.9839C45.0178 27.1188 44.7676 27.4505 44.5977 27.9788C44.3428 28.7715 42.0877 33.1889 41.7672 34.2516C41.4467 35.3144 39.9871 38.5799 39.8899 38.8816C39.7927 39.1832 37.1694 44.8915 36.643 46.4451C36.1171 47.9986 36.1055 48.7108 35.8845 49.3469C35.6635 49.9829 34.8647 51.4146 34.6075 51.9632C34.3508 52.5113 33.162 53.0873 32.982 53.593C32.802 54.0987 32.4201 54.4834 31.9811 55.1227C31.5421 55.762 30.1674 58.3777 29.7515 59.2861C29.3356 60.1945 28.6451 62.1934 27.996 63.6154C27.3472 65.0374 27.0506 65.1245 26.5488 66.4938C26.0469 67.8636 25.588 69.4339 25.51 69.8937C25.4321 70.3535 24.7487 71.3961 24.3736 72.1827C23.9985 72.9693 23.9671 73.7469 23.2264 74.3677C22.4856 74.9886 22.1071 75.9232 23.3225 75.8847C24.5379 75.8462 31.3717 72.9695 33.2498 71.8273C35.1279 70.6847 37.1053 68.3815 38.6328 67.2989C40.1603 66.2163 42.7286 64.0624 44.1369 62.6489C45.5452 61.2355 49.0065 56.5281 50.6893 53.8806C52.3722 51.2332 53.9775 48.0768 54.1121 47.631C54.2019 47.3341 53.8917 46.5177 53.182 45.1819C55.1054 44.8325 56.1258 44.5919 56.2421 44.4605C56.4166 44.2635 60.1234 37.4514 60.3886 36.7897C60.6538 36.128 60.5928 34.9481 58.5679 33.7834C56.5431 32.6187 52.2349 28.3071 51.6404 25.5902C51.0458 22.8729 52.0536 20.1117 52.0775 19.7197C52.1009 19.3277 51.6982 18.4643 51.3202 18.2891Z" fill="#A089E5"/>
<path d="M51.3196 18.2894C50.9416 18.1137 50.1934 18.2986 49.598 18.8726C49.0025 19.4466 46.0628 25.7926 45.5761 26.4626C45.4606 26.6632 45.3844 26.8369 45.3475 26.9842C45.0171 27.1191 44.767 27.4508 44.5971 27.9791C44.3422 28.7718 42.0871 33.1892 41.7666 34.2519C41.4461 35.3147 39.9865 38.5802 39.8893 38.8819C39.7921 39.1835 37.1688 44.8918 36.6424 46.4454C36.1164 47.9989 36.1048 48.7111 35.8839 49.3472C35.6629 49.9832 34.8641 51.4149 34.6069 51.9635C34.3501 52.5116 33.1614 53.0876 32.9814 53.5933C32.8014 54.099 32.4195 54.4837 31.9805 55.123C31.5414 55.7623 30.1668 58.378 29.7509 59.2864C29.335 60.1948 28.6445 62.1937 27.9953 63.6157C27.3466 65.0377 27.05 65.1248 26.5481 66.4941C26.0463 67.8639 25.5874 69.4342 25.5094 69.894C25.4315 70.3538 24.7481 71.3964 24.373 72.183C23.9979 72.9696 23.9665 73.7472 23.2257 74.368C22.485 74.9889 21.7838 75.6773 22.9992 75.6388C24.2146 75.6002 31.1354 72.6376 33.0135 71.495C34.8916 70.3524 36.8689 68.0492 38.3965 66.9666C39.924 65.884 42.4922 63.7301 43.9006 62.3166C45.3089 60.9032 48.7702 56.1958 50.453 53.5483C52.1358 50.9009 53.6274 47.9302 53.7621 47.4849C53.8518 47.188 53.5416 46.3716 52.8319 45.0357C54.8211 44.6757 55.8738 44.4305 55.9902 44.2991C56.1647 44.1021 59.6299 37.4001 59.8956 36.7384C60.1609 36.0767 59.905 35.1134 57.8801 33.9487C55.8552 32.784 52.0395 28.5244 51.4444 25.8071C50.8494 23.0898 51.8241 19.7688 51.848 19.3768C51.8714 18.9849 51.6976 18.4646 51.3196 18.2894Z" fill="#D7D4DD"/>
<path d="M51.4466 25.8189C52.0122 28.3667 55.3941 32.2604 57.4805 33.6952L57.8792 33.9485C59.9041 35.1132 60.16 36.0765 59.8947 36.7382L59.7122 37.1334C58.9362 38.7388 56.1457 44.1227 55.9893 44.2989C55.8729 44.4303 54.8202 44.6755 52.831 45.0355C53.5407 46.3709 53.8509 47.1873 53.7612 47.4847L53.6495 47.7647C53.2508 48.6681 51.9245 51.2315 50.4521 53.5486C48.7693 56.196 45.308 60.9034 43.8997 62.3169C42.4914 63.7303 39.9231 65.8843 38.3956 66.9669C36.8681 68.0495 34.8907 70.3531 33.0126 71.4953C31.9501 72.142 29.2726 73.3712 26.9281 74.3238C27.1249 73.6408 26.898 72.762 27.5485 72.2798L27.8916 72.0546C30.813 70.3648 30.316 65.5921 32.293 63.0627C34.27 60.5333 35.3258 58.4928 35.5972 57.0583C35.8686 55.6238 35.4807 54.5648 36.1381 51.9499L38.7166 48.1731C40.5177 45.4986 41.6909 43.6558 42.2352 42.6454C43.3925 40.4987 44.6141 34.1782 45.9429 34.0152C47.2718 33.8522 48.7903 33.251 49.0758 31.8543C49.1922 31.2854 49.6217 30.1536 50.2043 28.744L51.4466 25.8189Z" fill="#757575"/>
<path d="M57.4817 33.6952L57.8805 33.9484C59.9053 35.1131 60.1612 36.0765 59.896 36.7382L59.7134 37.1333L58.0089 40.5001C57.0546 42.3494 56.081 44.1967 55.991 44.2989C55.8746 44.4302 54.8219 44.6755 52.8327 45.0355C53.5424 46.3709 53.8526 47.1872 53.7629 47.4846L53.6512 47.7647L53.4041 48.2927C52.8919 49.3457 51.9022 51.2079 50.7907 53.0105L50.4538 53.5485C48.771 56.196 45.3097 60.9034 43.9014 62.3168C42.4931 63.7303 39.9248 65.8842 38.3973 66.9668C36.8697 68.0494 34.8924 70.3531 33.0143 71.4952C31.9518 72.1419 29.2743 73.3711 26.9298 74.3237C27.1266 73.6408 27.5596 72.9787 28.2096 72.4965L28.5528 72.2713C29.0256 71.9979 29.4439 71.6655 29.8216 71.2908L32.5638 69.4201C33.459 68.8007 34.1123 68.3355 34.5232 68.024C36.5047 66.5207 44.0108 56.323 45.3955 52.7459C46.7798 49.1693 42.6977 49.6259 43.3307 47.5002C43.9636 45.3744 48.6311 41.7157 49.6225 40.0545L50.1048 39.1998C51.044 37.48 52.7961 34.0677 54.357 30.7297C55.4149 31.9755 56.5716 33.0694 57.4817 33.6952Z" fill="#3B3B3B"/>
<path d="M30.5301 60.8489C30.7959 61.0996 31.0243 61.5853 31.2151 62.3065L31.325 62.7671C31.6104 64.087 32.1343 65.788 32.232 66.544L32.2477 66.7594C32.2416 67.3478 32.4202 67.9232 32.5749 68.1598C32.7295 68.3969 32.9265 69.6287 33.0004 70.0671C33.0497 70.3592 33.0916 70.7267 33.1268 71.169L32.8878 70.2456C32.8215 69.9671 32.7682 69.7173 32.7283 69.4964L32.678 69.1873C32.6205 68.7767 32.5921 68.6688 32.5156 68.5902L32.2283 68.3487C31.9385 68.0673 31.7329 67.9703 31.772 68.1638L31.9284 68.6014C32.1108 69.1412 32.366 70.0375 32.219 69.8749L32.0381 69.6372C31.8784 69.4111 31.6413 69.0484 31.3263 68.5501C30.9736 68.0548 30.7954 67.7222 30.7914 67.5528L30.8586 66.292C30.8915 65.3925 30.8803 64.2376 30.6315 63.5852L29.8618 61.6019L30.5301 60.8489Z" fill="#4433A5"/>
<path d="M36.8637 51.1352C38.1277 50.3131 39.7471 50.6703 42.2332 50.4512C44.5338 50.2483 49.5033 51.0064 51.6267 51.6127C51.2553 52.2476 50.8593 52.9071 50.4524 53.5476C48.8818 56.0189 45.7618 60.2843 44.2079 61.991L43.9 62.3159C43.8342 62.3818 43.7663 62.4492 43.6957 62.5184C42.3229 63.3407 41.3164 63.6821 40.6662 63.5482C39.5679 63.3222 36.0536 61.0817 34.6838 60.5463C33.3139 60.0109 30.1119 59.6656 30.0917 59.6752L31.2547 58.0064C31.3422 57.8822 31.4345 57.7512 31.5319 57.6128L34.7025 58.2685C36.9424 58.7191 40.022 60.1008 40.6631 60.2853C41.3041 60.4698 42.5171 57.9747 42.7896 56.9346C43.0411 55.9743 41.6663 55.2398 40.0426 54.4915L39.6325 54.3043C38.0386 53.5803 37.0701 53.2531 35.983 53.2561L35.5686 53.2727C34.2992 53.3673 35.6001 51.9572 36.8637 51.1352Z" fill="#694ABE"/>
<path d="M25.767 69.1834C26.3698 69.2427 27.1954 69.1683 27.1621 69.3443C27.1284 69.5198 27.0875 69.768 27.0143 69.9367C26.9411 70.1053 25.7864 70.6456 25.1281 70.9635L24.9884 71.0331C25.2438 70.5704 25.4674 70.1448 25.5099 69.8934C25.534 69.751 25.5953 69.5008 25.6826 69.1833C25.7137 69.1792 25.7406 69.1811 25.767 69.1834ZM41.0393 54.5572C41.4636 54.3312 42.4747 54.1938 42.9396 54.1824C43.4046 54.1705 43.4263 54.3511 43.438 54.6682C43.4497 54.9858 42.9944 55.1048 42.8381 55.1412C42.6817 55.1776 41.6901 55.3516 41.5046 55.4253C41.3191 55.4991 41.0715 55.8135 41.1354 55.8452C41.1993 55.877 41.4868 55.8122 41.7562 55.895C42.0256 55.9779 41.8588 56.5789 41.7364 56.7029C41.614 56.8268 40.5634 56.8839 40.0736 56.9416C39.5838 56.9992 39.5588 57.3129 39.8491 57.2368C40.1394 57.1607 40.3491 57.4892 40.4176 57.5833C40.4866 57.6774 40.45 58.1916 40.2087 58.2351C39.9674 58.2791 38.3785 58.6423 38.2443 58.674C38.1101 58.7056 38.1133 58.8939 38.4593 58.7999C38.8052 58.7059 38.8016 59.1462 38.8272 59.3514C38.8524 59.5561 37.6403 59.8428 37.3836 59.8818C37.1594 59.9163 37.0333 60.0052 37.1394 60.2452L37.2616 60.4725C37.4149 60.7933 37.4641 61.2113 37.3304 61.287C37.18 61.3717 35.713 61.8804 35.291 61.9804C34.869 62.0805 34.7677 61.2818 35.0246 61.1659C35.2815 61.0499 36.7022 60.4455 36.8656 60.4188C37.0289 60.3925 36.7743 60.2539 36.5952 60.206C36.4162 60.1581 36.2846 59.9585 36.3096 59.6605C36.3346 59.3625 37.2007 58.9544 37.5419 58.8938C37.8826 58.8332 37.9193 58.8231 37.7658 58.5104C37.6128 58.1977 37.9097 57.7896 38.177 57.6778C38.4443 57.566 39.2699 57.4601 39.4184 57.3731C39.5669 57.2862 39.5338 56.9985 39.3654 56.8081C39.1971 56.6178 39.3196 56.086 39.4883 56.0605C39.6571 56.035 40.5581 55.8584 40.7869 55.8157C41.0153 55.773 41.1271 55.5239 41.1874 55.4551C41.2473 55.3862 40.9213 55.4607 40.8136 55.2428C40.7051 55.0254 40.615 54.7832 41.0393 54.5572ZM44.4279 52.4152C44.6476 52.4659 44.7994 53.138 44.5707 53.2585C44.3421 53.3785 42.7167 53.9456 42.315 53.8251C41.9138 53.7046 41.9521 53.2492 42.1756 53.0758C42.3994 52.9024 44.2086 52.3646 44.4279 52.4152ZM45.7265 50.6167C45.9462 50.6674 46.098 51.3394 45.8693 51.4599C45.6406 51.5804 44.0153 52.1471 43.6136 52.0266C43.2123 51.9061 43.2507 51.4507 43.4741 51.2773C43.698 51.1039 45.5067 50.566 45.7265 50.6167ZM46.6982 48.953C46.9783 48.9932 47.1889 49.6369 46.868 49.7742C46.5471 49.9115 45.1519 50.2628 44.7506 50.1418C44.3493 50.0213 44.3877 49.5659 44.6112 49.3925C44.8346 49.2196 46.4181 48.9127 46.6982 48.953ZM47.7276 47.2654C48.0077 47.3057 48.2184 47.9493 47.8975 48.0866C47.5765 48.224 46.2208 48.5826 45.8191 48.462C45.4178 48.3415 45.4562 47.8861 45.6797 47.7127C45.9035 47.5393 47.4476 47.2252 47.7276 47.2654ZM48.7973 45.4786C49.0773 45.5188 49.288 46.1625 48.9671 46.2998C48.6461 46.4371 47.2904 46.7957 46.8887 46.6752C46.487 46.5546 46.5258 46.0992 46.7493 45.9258C46.9731 45.7524 48.5172 45.4383 48.7973 45.4786Z" fill="#2B2D2E"/>
<path d="M49.5991 18.8723C50.1945 18.2983 50.9427 18.1134 51.3207 18.2891C51.6987 18.4648 51.8729 18.985 51.8491 19.377L51.7948 19.6818C51.5934 20.6442 50.9301 23.4521 51.4455 25.8072C52.0031 28.3548 55.3919 32.2577 57.4815 33.6951L57.8807 33.9489C58.9365 34.5562 59.5115 35.1088 59.7823 35.5923C59.8059 36.388 59.6018 37.2357 59.4551 37.6671L59.3138 37.9418L59.3171 37.8765C59.3967 37.2826 58.5118 36.4793 57.5152 35.3957C56.5185 34.3122 52.4376 31.2314 50.9217 27.7991C49.4053 24.3669 50.1205 21.8617 50.5378 20.6831C50.9546 19.5044 50.4201 19.2621 50.1421 18.9902C50.057 18.9065 49.7822 18.9655 49.4385 19.0865L49.4707 19.0315L49.5991 18.8723Z" fill="#FFD895"/>
<path d="M57.481 33.6947L57.8802 33.9484C58.936 34.5557 59.511 35.1083 59.7818 35.5918C59.8054 36.3875 59.6013 37.2353 59.4546 37.6666L59.3133 37.9413L59.3166 37.876C59.3962 37.2822 58.5113 36.4789 57.5147 35.3953L57.0718 34.9586C55.9858 33.9439 53.7928 32.1108 52.2068 29.9583C52.0344 29.0405 51.9661 28.0853 51.9384 27.1579C53.0829 29.5725 55.7352 32.4938 57.481 33.6947Z" fill="#FFCA6F"/>
<path d="M46.6014 27.2341C46.8024 27.6258 46.1954 29.1121 45.9599 29.8269C45.724 30.5416 45.279 32.4025 45.6605 33.0147C46.0419 33.6269 48.6309 35.9958 48.9228 36.6414C49.2147 37.2874 48.7467 38.7092 48.4339 39.4048C48.121 40.0999 47.3871 41.4077 46.8931 41.6876L44.0387 43.0833C43.5947 43.3073 43.231 43.503 43.0705 43.6205C42.5637 43.9916 39.9842 49.0321 38.0836 51.3495L36.762 52.8556C35.3009 54.5643 34.1149 56.1794 33.4811 57.096L32.125 59.1814C31.4677 60.1882 30.7474 61.232 30.1621 61.8026C29.4309 62.5153 28.0795 64.1086 27.2413 65.037L27.5093 64.5771C27.6518 64.3248 27.8097 64.0258 27.9971 63.6147C28.6459 62.1927 29.3363 60.1938 29.7527 59.2854L30.1022 58.5648C30.6812 57.4099 31.6311 55.6335 31.9823 55.122L32.58 54.3069C32.7527 54.0676 32.8934 53.8447 32.9832 53.5918C33.1632 53.0861 34.3519 52.5102 34.6087 51.962C34.8654 51.4139 35.6646 49.9818 35.8856 49.3457C36.1066 48.7097 36.1178 47.9975 36.6442 46.4439L36.8908 45.7855C37.7218 43.6886 39.8044 39.1489 39.8911 38.8805L41.2219 35.7066C41.3425 35.4097 41.4545 35.1278 41.5489 34.8784L41.7683 34.2505C42.0658 33.2636 44.0317 29.3841 44.5148 28.2002L44.5984 27.9772C44.7683 27.4489 45.0185 27.1173 45.3488 26.9824L45.4017 26.8193C46.1111 26.9212 46.5107 27.058 46.6014 27.2341Z" fill="#EDEBF0"/>
<path d="M46.6001 27.2343C46.8011 27.626 46.1941 29.1124 45.9582 29.8271C45.7223 30.5419 45.2773 32.4027 45.6587 33.015C46.0402 33.6272 48.6292 35.996 48.9211 36.6416C49.213 37.2877 48.745 38.7095 48.4322 39.405C48.1193 40.1002 47.3854 41.4079 46.8914 41.6878L44.037 43.0836C43.593 43.3075 43.2293 43.5033 43.0688 43.6207C42.562 43.9919 39.9825 49.0323 38.0818 51.3498L36.7603 52.8558C35.2992 54.5646 34.1131 56.1797 33.4794 57.0962L32.1233 59.1817C31.466 60.1884 30.7457 61.2323 30.1604 61.8028C29.8552 62.1006 29.4419 62.5516 29.0027 63.0438C29.1124 62.5713 29.2617 62.1102 29.4501 61.6596C30.3272 59.5658 32.3136 56.6957 33.8686 55.2079L34.3204 54.8052C35.8049 53.5895 37.7387 50.0357 38.425 47.893L38.5607 47.4251C39.0247 45.6028 41.4642 39.1956 42.8106 35.975L44.1572 32.8466C44.6143 31.7607 45.3956 29.8542 46.5004 27.1277C46.5474 27.1613 46.5807 27.1972 46.6001 27.2343Z" fill="#E9E5E9"/>
<path d="M45.7131 33.092L45.6594 33.0154C46.0408 33.6281 48.6298 35.9965 48.9217 36.6421C49.2136 37.2881 48.7456 38.7099 48.4328 39.4055C48.12 40.1006 47.386 41.4084 46.892 41.6883L44.0377 43.084C43.5936 43.308 43.2299 43.5037 43.0694 43.6212C42.5626 43.9923 39.9831 49.0328 38.0825 51.3502L36.7609 52.8563C35.2998 54.565 34.1138 56.1802 33.48 57.0967L32.1239 59.1821C31.9762 59.4085 31.8254 59.6362 31.6736 59.8604L31.1768 59.5805C31.0997 59.5411 31.0259 59.5061 30.9558 59.4764L30.6446 59.3692L31.1514 58.5839C31.5536 58.351 32.0357 58.1178 32.3074 57.9618C32.7991 57.6792 33.6163 56.0096 34.1919 54.9141L34.321 54.8052C35.6902 53.6835 37.442 50.5721 38.2444 48.4145L38.5155 48.1128L38.7665 47.8082C39.6607 46.6595 40.8392 43.848 41.5576 42.3271C41.9521 41.4922 41.8106 40.1359 41.6057 38.9641L42.2745 37.2838L42.8479 37.7295C43.1409 37.9406 43.4355 38.1176 43.695 38.1837C44.5814 38.4086 44.5884 37.3386 44.8006 36.6632L44.8714 36.4739C45.0221 36.1419 45.3026 35.0147 45.7131 33.092Z" fill="#CDCDCD"/>
<path d="M30.6756 58.7644C30.9278 58.5136 30.9703 58.6571 31.9537 58.3916C32.2032 58.324 32.4588 58.2966 32.7058 58.2907L32.0998 59.2113L31.5432 59.1446C31.5079 59.1426 31.4811 59.1421 31.4628 59.1431C31.2069 59.161 30.7782 59.2329 30.1767 59.3588C30.3413 59.1297 30.5073 58.9315 30.6756 58.7644ZM34.7389 51.6988C34.884 51.5872 35.0209 51.5168 35.2177 51.4738C35.5624 51.3982 36.7228 51.4136 37.6905 51.3707L38.082 51.3499L37.1489 52.412L36.4505 52.3202C35.7546 52.2367 35.114 52.1956 34.9484 52.3474L34.6065 52.712C34.0166 53.379 33.005 54.6239 32.9269 54.724C32.848 54.8249 32.7438 54.4464 32.7054 54.1175L32.5788 54.3076C32.7516 54.0684 32.8923 53.8454 32.982 53.5926C33.162 53.0869 34.3508 52.5109 34.6075 51.9628L34.7389 51.6988ZM43.1168 31.205C43.2702 31.1589 43.3796 31.1491 43.4132 31.1692C43.5151 31.2294 43.1881 31.7856 42.8923 32.4424L41.956 34.7522C41.7843 35.1681 41.6279 35.5296 41.5238 35.7258C41.2665 36.2114 43.7558 38.0051 44.657 38.745L44.8348 38.8959C45.2167 39.2369 46.5169 40.1563 47.5564 40.9683C47.3229 41.3034 47.0888 41.5774 46.8924 41.6883L43.7553 43.2283C44.4373 42.67 45.8383 41.8495 46.0249 41.6409C46.2288 41.4132 45.6097 41.1025 45.1276 40.6792L44.932 40.4906C44.6093 40.1427 43.2785 39.1888 40.9406 37.6287C40.4976 39.154 40.1904 39.9151 40.0181 39.912C39.9378 39.9104 39.8318 39.6448 39.7243 39.2772L41.2208 35.7079L41.5478 34.8796L41.7672 34.2517C41.8529 33.9671 42.0778 33.4415 42.3654 32.8097L43.1168 31.205Z" fill="#908F91"/>
<path d="M22.6902 75.7145C22.8018 75.0886 22.4772 74.6388 22.1506 74.4957C21.824 74.3526 20.861 74.5585 20.1404 75.337C19.4201 76.1155 19.4851 76.8348 19.7774 77.2227C20.0697 77.6107 20.7278 77.4839 21.17 77.2578C21.6126 77.0317 22.5782 76.3404 22.6902 75.7145Z" fill="#242424"/>
<path d="M20.4543 76.0033C20.2691 76.5285 20.3675 76.793 20.7702 76.8609C21.1734 76.9287 22.7523 76.6171 23.4373 76.5669C24.1224 76.5171 26.2188 75.8646 26.9827 75.3284C27.7466 74.7918 30.9284 69.7217 31.5783 68.0352C32.2276 66.3488 31.2751 63.9534 31.0596 62.9578C30.8442 61.9622 30.5868 61.422 30.5186 60.9659C30.4503 60.5098 30.5727 60.2295 30.5787 59.9239C30.5826 59.7201 30.6316 59.5319 30.7256 59.359C31.6179 59.0172 32.2778 58.8346 32.7049 58.8118C33.3463 58.7778 34.4142 59.0452 36.2919 59.8547C38.1696 60.6643 38.886 60.9611 40.1213 61.2192C41.3567 61.4773 42.6534 61.671 44.9527 58.4767C47.2519 55.2825 47.6666 53.8368 47.3318 52.9901C47.1084 52.4256 46.9501 52.0438 46.8564 51.8439C48.439 52.5058 50.0108 52.8496 51.5726 52.8753C53.9151 52.9143 54.8682 52.8211 56.0921 52.4127C57.316 52.0042 57.923 51.5562 57.9783 51.3858C58.0336 51.2155 56.6202 50.8285 56.1654 50.7348C55.711 50.6411 54.7826 50.77 54.3426 50.7959C53.9027 50.8219 52.697 50.9869 50.2145 50.6221C47.732 50.2574 43.762 49.1348 42.4173 48.8189C41.0726 48.5031 38.024 47.8835 36.843 48.1521C35.6621 48.4207 34.7617 48.8325 35.0011 49.9812C34.6527 50.024 33.9705 50.3327 33.9994 50.8724C34.0283 51.412 34.3989 51.8766 35.4957 51.7973C36.5925 51.718 38.639 52.1652 39.7806 52.2076C40.9223 52.2501 44.1074 52.386 44.6751 52.393C45.2428 52.3999 45.6468 52.9624 45.5209 53.2591C45.395 53.5558 41.3286 58.9855 41.0338 59.2709C40.7389 59.5558 40.5072 59.6093 39.2541 59.1261C38.001 58.6428 36.0879 57.6445 34.5824 57.2919C33.0768 56.9393 32.6375 56.7017 31.9101 56.738C31.1823 56.7738 31.2849 56.704 30.8029 57.096C30.3213 57.4875 29.5885 57.4506 29.1976 58.0902C28.8072 58.7297 28.2226 59.8057 28.914 61.6112C29.6054 63.4166 30.2893 65.4692 30.0332 66.6936C29.7772 67.9181 25.5146 73.7218 25.1543 74.0546C24.794 74.3874 23.1211 75.073 22.6404 75.0799C22.1597 75.0869 21.7007 75.0032 21.3076 75.2031C20.9151 75.4033 20.6395 75.4781 20.4543 76.0033Z" fill="#F0EDF4"/>
<path d="M35.873 50.0038C39.5447 50.1914 41.8304 50.3384 42.7295 50.4456C44.0783 50.6061 39.8478 49.6693 38.3624 49.7037C37.3722 49.7261 36.5424 49.8263 35.873 50.0038Z" fill="#D4D4D4"/>
<path d="M31.5721 64.8998C31.803 65.9196 31.9431 67.0889 31.5784 68.0353C30.929 69.7217 27.7472 74.7919 26.9828 75.3285C26.2189 75.865 24.1225 76.5171 23.4374 76.5669C22.999 76.5986 22.195 76.738 21.5666 76.8162L21.8884 76.6505C21.935 76.6274 21.9781 76.6072 22.0177 76.5889C22.4693 76.3814 23.6491 76.1304 24.4252 75.7431C25.1237 75.3948 24.8736 75.0892 24.5171 75.0734L24.3955 75.0794C23.9847 75.1373 24.7632 74.5107 25.6641 73.9897C26.4901 73.5118 28.297 70.9509 29.0734 69.6742L29.2581 69.3604C29.7783 68.437 30.2849 67.7597 30.5422 67.1013L30.665 66.7067C30.8432 65.9146 31.0768 67.6476 31.1542 67.0556L31.2508 66.522C31.3183 66.1862 31.4078 65.7674 31.4881 65.3539L31.5721 64.8998ZM44.0542 52.3207L44.8409 52.158C45.7558 51.9837 46.1609 51.9971 46.3779 52.4143L46.4507 52.5901C46.5969 53.0267 46.9932 53.799 47.3078 54.3454C47.0462 55.2494 46.3448 56.5427 44.9528 58.4772C42.6536 61.6715 41.3568 61.4778 40.1215 61.2197C39.0275 60.9913 38.3404 60.7323 36.8934 60.1134C37.0928 60.0963 37.2796 60.1067 37.4543 60.143L37.7077 60.2165C38.7217 60.5998 40.3352 60.5092 40.2354 60.0586C40.183 59.8224 40.0101 59.5737 39.8484 59.3386C40.5962 59.5823 40.794 59.5037 41.0339 59.2718C41.3288 58.9869 45.3951 53.5568 45.521 53.2601C45.6469 52.9634 45.2425 52.4009 44.6752 52.3939L43.9219 52.3712C43.9634 52.3438 44.0094 52.3302 44.0542 52.3207ZM46.3132 51.0907C48.2361 51.736 49.5583 52.0579 50.2796 52.0565C51.3614 52.0545 52.342 51.2409 54.0123 51.185C54.3987 51.172 54.62 51.0167 54.7123 50.7723C55.1792 50.7239 55.8139 50.6631 56.1655 50.7353L56.584 50.8355C57.1759 50.9901 58.0215 51.2537 57.9784 51.3863C57.9231 51.5567 57.3161 52.0047 56.0922 52.4132C54.8684 52.8216 53.9148 52.9149 51.5727 52.8758C50.2716 52.854 48.9631 52.6117 47.6472 52.1484L46.9974 51.8976L46.3132 51.0907Z" fill="#CCCDD8"/>
<path d="M59.8638 49.6171C59.9701 48.9513 59.9215 48.4087 59.7174 47.9897C59.4113 47.3607 59.2137 46.6946 57.8382 46.0195C56.4626 45.344 53.9632 44.3291 52.9687 43.6704C51.9742 43.0117 47.1833 39.4257 45.8363 38.4521C44.4893 37.4784 42.3538 36.0433 41.8828 35.3633C41.5688 34.9099 41.4769 34.6097 41.6065 34.4618C41.1609 34.0067 40.7525 33.8724 40.3813 34.0581C39.8248 34.3368 39.574 35.0318 39.6828 35.3445C39.7916 35.6572 40.1193 36.2199 41.2646 37.2777C42.41 38.3354 46.1481 41.0289 48.2579 42.7981C50.3678 44.5672 53.0128 45.9598 54.5442 46.6102C56.0756 47.2606 57.804 48.2619 58.3245 48.5015C58.6722 48.661 59.1853 49.033 59.8638 49.6171Z" fill="#E8E6E4"/>
<path d="M40.3815 34.058C40.7528 33.8723 41.1614 34.0071 41.6072 34.4619C41.5814 34.4915 41.5642 34.5271 41.5561 34.5688L41.3457 34.4921C41.1991 34.4567 41.0371 34.4555 40.8604 34.4875C40.1996 34.6081 40.0218 35.4284 40.1938 36.1735C39.8789 35.7834 39.7454 35.5235 39.6831 35.345C39.5738 35.0322 39.8247 34.3364 40.3815 34.058Z" fill="#727272"/>
<path d="M54.5974 45.468C55.4613 45.7571 56.7367 45.9847 56.913 45.5861L57.838 46.019C59.2136 46.6945 59.4111 47.3606 59.7172 47.9892C59.9213 48.4082 59.9699 48.9508 59.8637 49.6165C59.3208 49.1492 58.8839 48.818 58.5534 48.6219L56.3872 47.4868C55.9478 47.2609 55.4756 47.0266 55.0085 46.8136L54.5444 46.6092C53.9349 46.3504 53.1495 45.9743 52.2916 45.5033C53.2153 45.5536 53.8044 45.2023 54.5974 45.468Z" fill="#DBD0D0"/>
<path d="M43.2388 31.6879C43.463 31.269 43.7824 30.6128 43.237 30.8309C42.6915 31.0485 42.2776 31.1105 41.7682 30.9425C41.2588 30.7745 40.2496 30.8286 39.3312 31.8013C38.4127 32.774 38.5909 33.948 38.7951 34.8131C38.9993 35.6782 38.6267 37.2121 38.5776 37.8661C38.5285 38.5202 39.0231 38.8734 39.2323 38.5287C39.4414 38.1844 39.777 36.0073 39.6826 35.3442C39.5887 34.6812 39.4727 33.186 39.8791 32.6584C40.2855 32.1307 41.7718 31.9668 41.9207 32.4051C42.0696 32.8438 42.5128 33.5621 42.5331 33.2983C42.5534 33.0351 43.0146 32.1069 43.2388 31.6879Z" fill="#343434"/>
<path d="M35.293 76.8862C34.0658 78.2283 32.34 78.9623 31.7484 79.1612C31.1568 79.36 30.0286 78.7487 29.735 77.4241C29.4415 76.0995 30.2087 74.515 30.9323 73.7872C31.6559 73.0595 32.9003 72.1117 34.0101 72.2473C35.1198 72.383 36.2264 72.9159 36.5675 73.5788C36.909 74.2422 36.5206 75.5441 35.293 76.8862Z" fill="#6D5CCA"/>
<path d="M34.8673 76.4548C33.6401 77.7969 31.8787 78.536 31.2871 78.7349C30.6955 78.9338 30.029 78.7487 29.735 77.4241C29.4415 76.0995 30.2087 74.515 30.9323 73.7872C31.6559 73.0595 32.9003 72.1117 34.0101 72.2473C35.1198 72.383 35.6644 72.5067 36.0051 73.1697C36.3466 73.8331 36.0945 75.1127 34.8673 76.4548Z" fill="#7B53E8"/>
<path d="M33.8834 73.16C33.9551 72.9563 34.2272 72.9851 34.4221 72.9682C34.617 72.9513 35.4968 73.2106 35.5634 73.5571C35.6301 73.9035 35.2268 74.4333 34.8481 74.7032C34.4693 74.9732 33.5104 75.2236 33.3667 75.5096C33.2231 75.7956 32.5067 76.4256 32.2516 76.926C31.9965 77.426 31.4718 77.4253 30.9129 77.6551C30.4922 77.8275 30.9311 78.3803 31.3079 78.7296C30.6955 78.9336 30.029 78.7486 29.735 77.424C29.7044 77.2869 29.6857 77.1467 29.6768 77.0053L29.7522 76.9333L29.899 76.8189C30.2553 76.573 31.7248 76.2298 32.1455 76.0434C32.5661 75.8571 33.323 74.8117 33.5123 74.5747C33.7021 74.338 33.8117 73.3637 33.8834 73.16Z" fill="#9175F6"/>
<path d="M34.0105 72.2472L34.3104 72.2796C34.5211 72.5662 34.5433 73.0769 34.9329 73.3808C35.2997 73.667 35.0848 74.3977 34.4269 74.5753C33.7691 74.7528 33.5113 74.7964 33.2834 75.1836C33.0555 75.5707 32.5015 76.1151 32.2826 76.2613C32.1706 76.4452 32.1237 76.6013 32.142 76.7298C32.1844 77.0302 31.9324 77.2315 31.5424 77.3836C31.1523 77.5356 30.8808 77.2563 30.7648 77.0558C30.6487 76.8553 30.6249 76.9932 30.0864 77.1463C29.9046 77.1979 29.8276 77.4166 29.8057 77.6871L29.735 77.4244C29.4415 76.0998 30.2087 74.5154 30.9323 73.7876C31.6563 73.0594 32.9008 72.112 34.0105 72.2472Z" fill="#4334A5"/>
<path d="M53.7053 59.3296C53.9611 59.778 53.9794 60.8765 53.2505 62.1742C52.5216 63.4723 51.1432 64.8583 49.7178 65.3279C48.2924 65.7975 47.3047 63.9024 47.1127 63.0293C46.9208 62.1561 47.1585 60.5307 48.1859 59.3909C49.2133 58.2511 50.3382 57.701 51.5358 57.8506C52.7339 57.9997 53.4494 58.8811 53.7053 59.3296Z" fill="#6645BD"/>
<path d="M53.4273 58.9564C53.6831 59.4048 53.6749 60.4664 52.9406 61.6221C52.2063 62.7779 50.6682 64.4625 49.2424 64.9321C47.817 65.4018 47.306 63.9023 47.1141 63.0291C46.9221 62.156 47.1598 60.5306 48.1873 59.3908C49.2147 58.251 50.3395 57.7009 51.5372 57.8504C52.7348 57.9995 53.1714 58.508 53.4273 58.9564Z" fill="#7857DD"/>
<path d="M51.5356 57.8502C51.8312 57.8872 52.0806 57.946 52.2926 58.0203C51.2661 58.3187 51.4314 58.7546 51.8555 58.9482C52.3235 59.162 53.5359 59.6969 52.1011 60.6795C51.8273 60.867 51.4821 61.4849 51.0623 62.04C50.8447 62.3278 50.4636 62.8529 49.9196 63.6151C49.3789 64.2431 49.0085 63.8819 48.2382 63.7752C47.7588 63.7088 47.727 64.2459 48.2688 64.9223C47.5616 64.6342 47.2524 63.6649 47.1125 63.0284C46.9205 62.1553 47.1582 60.5299 48.1856 59.3901C49.2131 58.2508 50.3379 57.7006 51.5356 57.8502Z" fill="#4D34B6"/>
<path d="M49.9408 58.0735L50.24 58.0268L50.4939 58.0278C51.0836 58.1263 51.3276 59.0657 51.6419 59.0873C51.9562 59.109 52.3771 59.3418 52.6199 59.6719C52.8626 60.002 51.9878 60.5727 51.6918 60.6085L51.0219 60.6299C50.654 60.6477 50.2712 60.7029 50.1872 60.8984C50.04 61.2403 49.7505 62.1411 49.8809 62.5283C50.0112 62.9154 50.0225 63.4596 49.6102 63.7842C49.1978 64.1088 48.1199 63.5656 47.9241 63.4089C47.7717 63.2873 47.2894 62.7174 47.1505 62.0283L47.1133 61.6926C47.2397 60.9282 47.572 60.0728 48.1864 59.3912C48.7434 58.7721 49.3299 58.3269 49.9408 58.0735Z" fill="#311B8E"/>
<path d="M25.7506 72.4565C25.2569 72.9163 24.6494 73.5901 24.8487 73.8271C25.0479 74.0642 27.4682 75.7732 28.2865 76.1069C29.1049 76.4406 29.8415 76.6248 30.6512 76.3701C31.461 76.1154 32.6139 75.6638 33.1276 74.688C33.6418 73.7123 33.488 72.2929 33.0695 71.493C32.6509 70.6926 31.1324 68.2736 30.8539 67.9135C30.5749 67.5535 30.0054 66.931 30.1285 66.5611C29.8283 66.3785 29.6176 66.4435 29.4486 66.6323C29.2796 66.8211 28.296 68.9456 27.9331 69.4364C27.5701 69.9267 26.2444 71.9968 25.7506 72.4565Z" fill="#4E2FBB"/>
<path d="M25.7506 72.4565C25.2569 72.9163 24.6494 73.5901 24.8487 73.8271C25.0479 74.0642 27.3258 75.5447 28.1442 75.8789C28.9626 76.2125 29.6978 76.4099 30.5075 76.1551C31.3173 75.9004 32.4702 75.4488 32.9839 74.4731C33.4981 73.4973 33.3443 72.0779 32.9258 71.278C32.5073 70.4781 31.1324 68.2736 30.8535 67.9135C30.5745 67.5535 30.0049 66.931 30.1281 66.5611C29.8279 66.3785 29.6171 66.4435 29.4482 66.6323C29.2792 66.8211 28.2956 68.9457 27.9326 69.4364C27.5701 69.9267 26.2444 71.9968 25.7506 72.4565Z" fill="#7B4EE4"/>
<path d="M29.1279 67.2021L30.9892 69.9971C31.1983 70.3206 31.3622 70.5817 31.4818 70.7808L31.5859 70.9587C32.0775 71.8243 32.7466 73.1758 32.1416 74.2709C31.5366 75.3659 30.4358 75.5875 29.01 75.262C28.1477 75.0651 26.8969 74.298 25.2578 72.9602C25.4098 72.7846 25.5859 72.6086 25.7493 72.4564C25.914 72.3033 26.1709 71.9711 26.4539 71.5782L27.9317 69.4363C28.1894 69.0887 28.7582 67.9206 29.1279 67.2021Z" fill="#8754ED"/>
<path d="M29.9038 74.3563C29.7373 74.6548 29.9303 75.3299 30.1614 75.54C30.3924 75.7501 31.1969 75.571 31.2329 75.1375C31.2688 74.7041 30.9718 74.2248 30.6005 74.0848C30.2283 73.9453 30.0699 74.0578 29.9038 74.3563Z" fill="#483C9D"/>
<path d="M31.3809 73.1121C31.4786 73.4402 32.0942 73.7696 32.4042 73.7482C32.7141 73.7268 33.145 73.0186 32.8611 72.6914C32.5768 72.3643 32.0286 72.2465 31.6707 72.4183C31.3128 72.5901 31.2831 72.784 31.3809 73.1121Z" fill="#483C9D"/>
<path d="M29.1285 67.2021L30.013 68.5338L27.915 74.8206C27.1868 74.4314 26.3014 73.8112 25.2589 72.9602C25.4109 72.7845 25.587 72.6086 25.7504 72.4564C25.9151 72.3033 26.172 71.971 26.455 71.5781L27.9328 69.4363C28.1901 69.0887 28.7589 67.9206 29.1285 67.2021Z" fill="#9D6CFA"/>
<path d="M30.1614 74.4521C30.0623 74.5357 30.1187 74.998 30.3918 75.6262C30.6648 76.2544 31.1192 76.9872 31.2167 77.0804C31.3142 77.1735 31.8265 76.9655 31.8319 76.7395C31.8374 76.5136 30.8185 74.6217 30.6965 74.4173C30.5746 74.213 30.26 74.3681 30.1614 74.4521Z" fill="#7A00FE"/>
<path d="M31.9886 72.5908C31.683 72.6197 31.4803 72.8711 31.6118 73.0811C31.7438 73.291 33.4512 74.078 33.6065 74.1928C33.7617 74.3075 34.2477 74.425 34.5035 74.1192C34.7594 73.8135 34.736 73.5926 34.465 73.5309C34.1941 73.4692 32.7396 72.7665 32.3979 72.6535C32.0562 72.5406 32.2942 72.5619 31.9886 72.5908Z" fill="#7A00FE"/>
<path d="M50.5779 61.3415C51.3129 60.3939 50.5873 58.2383 49.6677 56.9383C48.7481 55.6382 46.2684 53.198 45.9825 53.0563C45.6966 52.9147 45.5804 52.3409 45.271 52.5161C44.9615 52.6912 42.1735 56.9324 41.6958 57.6885C41.218 58.445 40.7747 58.8209 40.6959 59.3085C40.617 59.7962 42.0714 60.8367 42.9611 61.2967C43.8508 61.7568 45.6739 62.6175 47.1389 62.5572C48.6047 62.4965 49.8429 62.2886 50.5779 61.3415Z" fill="#784CDF"/>
<path d="M44.6121 53.3568C44.9084 53.4991 45.1505 53.639 45.3382 53.7761C46.3275 54.4952 48.2907 56.4421 49.293 58.1024C50.2952 59.7628 49.8299 61.0586 48.9252 61.4997C48.02 61.9409 46.1991 61.8194 44.1074 60.8731C42.5484 60.1678 41.4901 59.1374 41.0287 58.6221L41.4533 58.0498L43.2498 55.3264C43.6453 54.7362 44.0543 54.1352 44.4024 53.6404L44.6121 53.3568Z" fill="#6D45D6"/>
<path d="M47.4134 60.651C47.2469 60.9495 47.5032 61.5367 47.7338 61.7468C47.9649 61.9568 48.762 61.7717 48.7122 61.362C48.6623 60.9524 48.4462 60.4936 48.0745 60.3536C47.7032 60.2141 47.5799 60.3524 47.4134 60.651Z" fill="#302387"/>
<path d="M48.5797 59.3278C48.7053 59.646 49.212 59.7912 49.5639 59.6853C49.9159 59.5789 50.096 58.8444 49.749 58.6254C49.402 58.4063 49.1379 58.4101 48.7966 58.6134C48.4544 58.8157 48.4537 59.0092 48.5797 59.3278Z" fill="#302387"/>
<path d="M44.6126 53.3568C44.9088 53.4991 45.151 53.639 45.3386 53.7761L45.7663 54.113C45.8442 54.1785 45.9253 54.2479 46.0088 54.3213L43.2353 60.4192C42.1499 59.7773 41.3981 59.0346 41.0287 58.6221L41.4533 58.0498L43.2498 55.3264L44.4024 53.6404L44.6126 53.3568Z" fill="#895BE9"/>
<path d="M45.1137 53.6273L42.4577 57.1399C42.1242 57.5717 41.8714 57.8912 41.6999 58.0985C41.427 58.4286 41.3161 58.451 41.3674 58.166L41.4521 58.0501L43.2486 55.3266L44.4012 53.6406L44.6114 53.3575C44.8012 53.4482 44.9686 53.5383 45.1137 53.6273Z" fill="#AD90F5"/>
<path d="M47.0243 54.0947L46.3851 53.3867L47.1362 54.106C48.0009 54.9644 49.1161 56.1567 49.6683 56.9376C50.5879 58.2376 51.3134 60.3932 50.5785 61.3408C49.8435 62.2884 48.6053 62.4958 47.1403 62.5561C45.6753 62.6163 43.8523 61.7556 42.9625 61.2956C42.1871 60.8945 40.9825 60.0526 40.7383 59.5202C41.8866 60.4461 43.983 61.5433 45.2785 61.8531C46.68 62.1878 47.9324 62.2219 48.7524 61.9799C49.5724 61.7379 49.981 61.1801 50.2204 60.4351C50.4598 59.6901 50.0565 58.7498 49.3489 57.2367C49.0056 56.5032 48.2309 55.4559 47.0243 54.0947Z" fill="#4E34AF"/>
<path d="M47.771 60.5978C47.5374 60.6906 47.3746 60.9317 47.8176 61.7008C48.2605 62.4694 48.8613 63.7875 49.3435 63.5309C49.8258 63.2747 49.3535 62.6667 49.2513 62.4509C49.149 62.2351 48.4425 60.9563 48.3173 60.7628C48.1917 60.5698 48.0045 60.505 47.771 60.5978Z" fill="#9761E9"/>
<path d="M49.2511 58.6489C48.8868 58.7233 48.604 58.9961 48.7391 59.2649C48.8742 59.534 49.2457 59.4442 49.845 59.5769C50.4443 59.7097 51.2176 60.1127 51.3458 60.2476C51.4741 60.3826 52.24 60.1391 52.284 59.8338C52.328 59.5284 51.4747 59.3213 51.0681 59.1726C50.6615 59.0239 49.6155 58.5745 49.2511 58.6489Z" fill="#9761E9"/>
<path d="M69.2955 66.7102C69.0947 66.1544 69.1515 63.7378 69.0129 62.2338C68.8744 60.7299 69.4102 51.8429 69.6862 50.1996C69.9617 48.5563 70.1518 47.9878 70.6667 47.3925C71.1817 46.7976 72.7087 45.0436 72.6719 44.4103C72.6347 43.7765 72.3631 42.2002 72.7346 41.3558C73.1061 40.5113 79.4114 32.5251 80.5289 31.1136C81.6464 29.7025 84.8788 25.5522 85.3991 24.9837C85.9193 24.4152 86.5069 24.2187 87.5503 24.4441C88.5938 24.6696 91.5983 25.7775 91.9792 25.8861C92.36 25.9947 93.2707 25.3582 93.354 25.4271C93.4099 25.473 94.5808 26.8196 96.8675 29.4663L93.0774 36.08L80.181 55.2456C73.058 63.2588 69.4293 67.0806 69.2955 66.7102Z" fill="#DDDDE1"/>
<path d="M69.2954 66.7105C69.0946 66.1547 69.4779 63.9333 69.3397 62.4289C69.2012 60.925 69.737 52.038 70.013 50.3947C70.2885 48.7514 70.4786 48.1829 70.9935 47.5876C71.5085 46.9927 73.0355 45.2387 72.9987 44.6054C72.9619 43.972 72.6899 42.3953 73.0614 41.5509C73.4329 40.7064 79.7382 32.7202 80.8557 31.3087C81.9732 29.8972 85.0906 25.8503 85.6104 25.2813C86.1306 24.7128 86.7183 24.5163 87.7617 24.7418C88.8051 24.9672 91.8097 26.0751 92.1905 26.1837C92.5713 26.2923 93.2706 25.358 93.3539 25.4269C93.4098 25.4728 94.5807 26.8194 96.8675 29.4662L93.0773 36.0798L80.1809 55.2455C73.0579 63.2591 69.4292 67.0809 69.2954 66.7105Z" fill="#B9BDC1"/>
<path d="M92.1904 26.1836C92.5713 26.2922 93.2705 25.3578 93.3539 25.4267L96.8674 29.466L93.4422 35.4404L91.6678 29.7948C91.2116 28.3458 90.2468 26.7562 88.7734 25.0256L90.4555 25.5863C91.2903 25.874 92.0162 26.1342 92.1904 26.1836Z" fill="#CCC8C8"/>
<path d="M79.7072 1.41471C80.6515 0.938584 82.3137 0.864936 83.5049 2.58863C84.696 4.31233 85.049 6.19404 84.6363 7.77415C84.2236 9.35471 82.5986 11.3433 82.5432 11.7399C82.4883 12.1365 84.1428 13.6419 84.7195 14.1482C85.2961 14.6545 85.3284 15.5578 85.8315 15.8083C86.3345 16.0587 87.7398 15.3047 90.1218 15.4639C92.5037 15.6231 93.8225 16.8342 94.4641 18.147C95.1057 19.4598 94.4377 22.0741 94.1361 23.8257C93.8345 25.5773 94.9616 26.2822 95.9043 27.1237C96.847 27.9652 97.2232 28.5659 96.9841 29.1378C96.7451 29.7101 96.5186 29.5305 96.3955 29.4584C96.2723 29.3858 95.2264 28.0974 94.8127 27.5379C94.3985 26.9784 93.7179 26.1156 93.5693 25.8293C93.4212 25.5425 93.3675 25.3252 93.2435 24.8542C93.1194 24.3832 93.3821 22.4737 93.6358 21.6689C93.8894 20.8636 93.9297 19.0591 93.2122 17.6749C92.4947 16.2908 90.4628 16.3108 89.5414 16.2061C88.62 16.1014 86.6116 16.7165 85.8492 16.6586C85.0867 16.6006 83.7392 15.2546 83.3067 14.7928C82.8742 14.331 81.1913 12.8732 80.7992 12.4898C80.407 12.1063 79.6708 11.3195 79.497 10.9674C79.3231 10.6153 79.3336 9.61175 79.3093 9.13449C79.285 8.65722 78.3079 7.68726 77.7055 5.74456C77.1039 3.80273 78.763 1.89083 79.7072 1.41471ZM80.1369 2.12795C79.22 2.59378 78.504 4.03499 78.5577 5.27807C78.6113 6.52114 79.6482 7.83325 80.23 8.49092C80.8118 9.14859 80.6463 9.9178 80.765 10.3872C80.8836 10.8565 81.457 11.4443 81.6348 11.3106C81.8127 11.1768 82.1995 10.5383 82.6409 9.84453C83.0822 9.15032 83.6041 8.07854 83.9088 6.78197C84.2135 5.48585 83.5818 4.00501 82.9623 3.12862C82.3438 2.2522 81.0538 1.66213 80.1369 2.12795Z" fill="#2C2F28"/>
<path d="M88.4029 25.3625L89.8052 25.7921C91.484 26.2791 92.6756 26.3637 93.6643 25.9244L93.7561 25.877L94.4118 26.629C94.2955 26.6925 94.1728 26.7485 94.0492 26.8036C92.9408 27.2961 91.724 27.2735 90.1498 26.8799L89.041 26.5643L88.554 26.4105C87.1607 25.9684 86.9671 25.9965 86.2283 26.7082L85.6983 27.2806L85.0095 28.0783C83.572 29.7697 81.2624 32.6171 79.5338 34.9022L77.7923 37.2565L75.1255 41.0095C75.1013 41.0471 75.0826 41.0769 75.0699 41.098C74.9373 41.3234 74.7192 44.0757 74.5978 44.7981C74.4691 45.5612 74.1049 46.3533 73.5611 47.1676C73.3591 47.4703 73.1391 47.7659 72.9033 48.0561L72.3833 48.6619L71.8809 49.2007L71.858 49.2405L71.7939 49.4139L71.7294 49.7041C71.61 50.3514 71.4844 51.6527 71.3285 53.9537L71.1961 56.0233C71.0693 58.113 71.0146 60.1554 71.032 62.1502C71.1913 62.0395 76.0783 56.5027 78.0835 54.3465C78.7861 53.5911 78.2233 52.8285 77.3909 53.2696C76.5584 53.7108 75.8305 53.8046 75.4831 53.3091C74.7822 52.3098 74.5537 50.9706 75.5711 49.3536C75.8903 48.8467 77.5293 46.8068 77.1112 44.7531C76.6926 42.6994 76.7304 41.5555 77.3027 40.6697C78.4252 38.9324 82.8007 32.05 86.4541 28.4351C87.3866 27.5124 87.9052 27.39 89.1393 27.6486C91.2769 28.0965 91.0236 34.1699 92.4681 32.9555C94.0073 31.6616 95.5212 29.6445 96.1333 29.1055C96.5818 28.7106 97.3832 29.6685 98.5365 31.9789C80.2429 53.8238 71.1029 64.8843 71.1156 65.1605L70.5182 65.7584C70.4281 65.8462 70.3433 65.9285 70.2631 66.0043C70.2214 65.939 70.1972 65.8638 70.1924 65.7825C70.0205 62.6315 70.038 59.3586 70.2444 55.9636L70.489 52.2919L70.5746 51.2792C70.7167 49.7619 70.8586 49.065 71.0703 48.7035L71.1992 48.5327L71.8222 47.853C72.1728 47.4526 72.4911 47.0469 72.7689 46.6307C73.2436 45.9197 73.554 45.2445 73.6563 44.6364L73.913 42.3646C74.0119 41.5615 74.128 40.8118 74.2483 40.6071L74.5644 40.1304L76.0297 38.0582C76.6479 37.1979 77.3587 36.2205 78.0522 35.285L79.582 33.2633L80.8754 31.6152C82.9228 29.039 85.0198 26.5405 85.5676 26.0129C86.4923 25.1246 87.0346 24.9768 88.4029 25.3625Z" fill="#3B3B3B"/>
<path d="M4.44279 93.7881C4.21721 93.7506 3.57756 95.0356 5.16038 97.9828C6.74365 100.93 8.67792 101.538 9.96199 102.197C11.2461 102.856 15.8034 103.872 19.1985 103.248C22.5936 102.624 24.2386 101.93 24.8188 101.852C25.399 101.774 26.7241 101.563 27.0646 101.268C27.4051 100.972 28.2617 100.915 28.7807 100.892C29.2997 100.868 30.2836 100.176 30.5204 100.158C30.7571 100.14 31.3191 100.165 32.2863 99.6384C33.2531 99.1121 37.5563 96.7698 38.1629 96.4396C38.7696 96.1094 38.4924 95.449 38.1727 94.9441C37.8531 94.4396 37.0359 93.6598 36.311 93.5755C35.5857 93.4916 24.4202 98.6122 21.028 99.4573C17.6358 100.302 13.753 101.108 12.1901 100.793C10.6273 100.478 9.74963 99.918 9.02805 99.4131C8.30646 98.9082 7.15041 98.0635 6.50015 96.916C5.84989 95.7685 4.66836 93.8255 4.44279 93.7881Z" fill="#E2E2E2"/>
<path d="M4.76341 94.1251C5.22073 94.7385 6.01089 96.0511 6.49969 96.915C7.05692 97.8986 7.98595 98.6596 8.69449 99.1752L9.0276 99.4126C9.7492 99.9179 10.6264 100.478 12.1897 100.792C13.7525 101.107 17.6349 100.302 21.0276 99.4567C24.4202 98.6116 35.5856 93.4911 36.3106 93.5749C37.0359 93.6588 37.8526 94.4386 38.1723 94.9435C38.4562 95.392 38.707 95.9638 38.3331 96.3172L38.1625 96.439L32.2859 99.6379C31.3191 100.164 30.7567 100.14 30.5199 100.158C30.2831 100.176 29.2992 100.868 28.7802 100.891C28.3477 100.911 27.6807 100.954 27.2734 101.139L27.0642 101.267C26.7723 101.521 25.7571 101.712 25.1075 101.81L24.8184 101.852C24.2382 101.93 22.5932 102.623 19.1981 103.248C18.094 103.451 16.8677 103.48 15.6701 103.406C16.1092 103.323 16.5372 103.227 16.9306 103.111L18.3535 102.704C19.2309 102.473 19.1197 102.585 19.5466 102.653C20.1286 102.745 20.632 102.166 21.6075 101.805C22.583 101.444 22.4056 102.034 23.2635 101.891C23.9989 101.769 24.3163 101.404 24.594 101.339L24.7312 101.333C25.052 101.39 25.2088 100.913 25.4521 100.376C25.6953 99.8394 26.7713 100.519 27.3838 100.433C27.9963 100.348 27.4088 99.4358 28.196 99.5731C28.9832 99.7098 29.5506 99.2923 29.6668 98.646C29.7831 97.9998 31.2764 98.6163 32.1514 98.5493C33.0269 98.4823 32.6185 98.0931 32.6009 97.3881C32.5833 96.6831 33.4451 97.4911 34.1451 97.4638C34.8451 97.4365 34.7736 97.2467 34.6901 96.7893C34.6066 96.3319 35.4838 96.7775 36.1829 96.9193C36.8819 97.0606 38.0652 96.2676 37.6955 95.2049C37.3259 94.1421 36.8436 93.8996 35.9206 94.2581C34.9976 94.6162 29.9796 96.7794 26.9616 98.036C23.9437 99.2925 20.5952 100.479 17.1083 101.065C15.2777 101.373 13.6276 101.548 12.3403 101.372C11.1754 101.212 10.3492 100.642 10.1928 100.52C9.86345 100.261 9.2295 99.6486 8.14554 98.9262C7.14495 98.2592 5.19871 95.5311 4.80689 94.4304L4.74113 94.1968L4.76341 94.1251Z" fill="#B7B7B6"/>
<path d="M38.1726 94.943C38.4565 95.3915 38.7073 95.9633 38.3334 96.3168L38.1627 96.4386L32.2862 99.6374C31.3194 100.164 30.757 100.139 30.5202 100.157C30.2834 100.175 29.2995 100.867 28.7805 100.891C28.4624 100.905 28.0176 100.932 27.6425 101.019C27.7923 100.903 27.9044 100.808 28.0484 100.733L28.297 100.638C28.6668 100.537 29.3431 100.194 29.7956 100.013L30.0852 99.9132C30.4699 99.8193 31.0817 99.4822 31.2741 99.4591C31.4666 99.436 32.1132 98.9728 32.4922 98.9362C32.8711 98.8996 33.5172 98.4324 33.5131 98.1595C33.5091 97.8867 34.998 97.8661 34.909 97.8023C34.8196 97.7386 34.8298 97.5382 35.0781 97.4045C35.3265 97.2708 36.207 97.1663 36.5978 96.9818L37.0932 96.7028C37.4842 96.4517 37.9197 96.1269 38.0084 95.9537C38.0958 95.7832 38.1232 95.3884 38.0913 94.7698L38.0996 94.8356L38.1726 94.943Z" fill="#727272"/>
<path d="M112.116 41.5787C111.226 39.9185 109.879 39.2443 109.49 39.1472C109.101 39.0501 108.701 37.9222 108.788 37.0709C108.875 36.2196 108.113 35.5226 107.107 35.1224C106.101 34.7227 95.9107 35.8018 95.2267 36.4119C94.5427 37.022 80.7684 52.0033 79.2705 53.6475C77.7726 55.2918 73.8568 59.7747 72.9995 60.7032C72.1421 61.6317 69.2333 64.3926 68.5739 64.9461C67.9144 65.4997 56.8323 73.7776 55.8783 74.3561C54.9243 74.9342 37.9385 85.1059 30.2096 89.1443C22.4807 93.1827 9.96098 99.1641 9.57595 99.562C9.19091 99.9599 10.5631 101.196 12.4302 101.325C14.2972 101.454 18.5306 101.184 25.2184 98.5333C31.9063 95.8829 36.2131 93.8431 36.6341 93.8263C37.0552 93.8095 37.7559 94.2589 37.9689 94.7518C38.182 95.2452 38.2252 95.7124 38.448 95.6456C38.6707 95.5788 39.5363 95.1542 39.7034 94.8072C39.8706 94.4602 40.5677 94.7414 41.8125 94.1893C43.0573 93.6373 44.1639 93.1713 45.5276 92.4293C46.8909 91.6869 60.508 84.2348 62.2678 83.2767C64.0277 82.3186 65.1987 80.6351 65.7689 79.0137C66.3387 77.3922 67.1008 76.6259 67.6851 76.4246C68.2695 76.2232 68.7387 77.116 69.2193 76.9085C69.7 76.701 69.9987 76.5666 70.1957 76.8172C70.3927 77.0678 71.4658 77.7542 72.5303 77.3862C73.5948 77.0183 75.837 75.89 79.0312 74.1508C82.2254 72.412 94.7975 65.5683 98.8269 63.3744C102.857 61.1809 103.385 59.0584 103.765 58.5424C104.145 58.0264 105.331 58.3607 105.565 58.0436C105.798 57.7264 106.14 56.9247 106.842 56.8676C107.543 56.8106 108.342 56.2275 108.373 55.8205C108.404 55.4134 108.93 55.1393 108.977 55.2651C109.024 55.3909 110.007 55.1617 110.161 54.2616C110.316 53.3614 110.3 53.0089 110.825 52.9394C111.351 52.8698 111.501 52.1555 111.356 51.6411C111.212 51.1267 111.953 51.5235 112.084 51.245C112.172 51.0593 112.269 50.6627 112.375 50.0555C112.991 48.4542 113.312 47.1643 113.338 46.1863C113.379 44.7199 113.006 43.239 112.116 41.5787Z" fill="#DFDFDF"/>
<path d="M95.2267 36.4122C95.9107 35.8021 106.101 34.7229 107.107 35.1227L107.408 35.2545C106.057 36.5348 102.891 41.4007 101.571 41.7672C100.047 42.19 99.7312 41.1116 99.1242 41.015C98.5166 40.9181 97.4399 41.5382 95.8039 43.3154C95.0959 43.8574 92.5656 44.063 88.2122 43.9318L94.9404 36.7C95.0851 36.5493 95.1829 36.4513 95.2267 36.4122Z" fill="#E2E2E2"/>
<path d="M39.6103 92.9724L40.2316 92.6557L40.6809 92.4447C40.8697 92.3592 41.0009 92.3177 41.0592 92.3865C41.1954 92.5468 41.9607 92.9654 42.5801 92.8727L43.0185 92.7951L43.8269 92.6263C44.6053 92.4526 45.6039 92.2001 46.5057 91.8948L45.5281 92.4291C44.1648 93.1716 43.0578 93.637 41.813 94.1891C40.7063 94.6798 40.0328 94.512 39.7794 94.7124L39.7039 94.807C39.5363 95.154 38.6712 95.5786 38.4484 95.6454C38.28 95.6957 38.2145 95.4423 38.1008 95.1027C38.4519 94.9748 38.7347 94.7429 38.9494 94.4061C39.3177 93.8284 39.0868 93.2249 39.6103 92.9724Z" fill="#9C9C9C"/>
<path d="M41.5158 93.1146L41.9361 93.2305C42.3666 93.3438 42.984 93.4563 43.6857 93.2432L44.2319 93.0902C43.4076 93.4929 42.6412 93.8218 41.8135 94.189C40.7069 94.6797 40.0333 94.5119 39.7799 94.7123L39.7044 94.8069C39.5368 95.1539 38.6717 95.5785 38.4489 95.6453C38.3208 95.684 38.2517 95.5454 38.1762 95.3274L38.7093 95.0705C38.8977 94.9734 39.0745 94.8666 39.1701 94.7562C39.4311 94.4561 39.5818 93.8992 40.0486 93.604C40.5154 93.3092 41.1459 93.0273 41.5158 93.1146Z" fill="#404040"/>
<path d="M110.623 45.1477C109.344 47.8549 106.975 50.8908 106.176 53.0712C105.412 55.157 107.857 54.0664 110.061 52.3141L110.36 52.0714C110.964 51.5695 111.594 51.1027 112.252 50.6711C112.195 50.9414 112.138 51.1325 112.085 51.2457C111.953 51.5245 111.212 51.1273 111.357 51.6417C111.501 52.1561 111.351 52.8705 110.826 52.94C110.3 53.0095 110.316 53.362 110.162 54.2622C110.023 55.0724 109.213 55.3388 109.018 55.2923L108.977 55.2657C108.937 55.1581 108.545 55.344 108.414 55.6557L108.373 55.8211C108.342 56.2281 107.544 56.8112 106.842 56.8683C106.14 56.9253 105.798 57.7266 105.565 58.0442C105.332 58.3618 104.145 58.0275 103.766 58.543C103.406 59.0319 102.912 60.9622 99.4352 63.0295L98.8277 63.375L78.3117 74.5418C75.4995 76.0594 73.5135 77.0471 72.5311 77.3868C71.5849 77.7142 70.6317 77.208 70.2933 76.9155L70.1965 76.8178C69.9995 76.5672 69.7013 76.7015 69.2202 76.9091C68.739 77.1166 68.2703 76.2238 67.6859 76.4251C67.1664 76.6042 66.5066 77.2297 65.9661 78.5049L65.7697 79.0143C65.6005 79.4949 65.3789 79.9812 65.1045 80.4525C65.205 78.7333 65.4284 77.6187 65.7711 77.1057C66.4094 76.1499 68.6475 75.6049 69.8103 74.9137L70.8884 74.2221C72.761 72.9906 76.0808 70.76 77.3539 70.3856C78.8313 69.9508 82.4519 68.3084 84.8249 66.7726L85.3488 66.4207C87.6757 64.7923 100.39 55.0022 101.029 54.8154C101.668 54.6285 101.793 58.5266 102.827 57.9168C103.861 57.307 104.015 53.2828 104.074 52.1994C104.08 52.0796 104.956 49.3329 103.294 50.9998C101.642 52.657 93.4702 58.66 99.7851 51.1533C106.1 43.6467 106.921 42.431 108.046 40.8947L108.277 40.5736C109.582 38.7074 111.902 42.4405 110.623 45.1477Z" fill="#D4D4D4"/>
<path d="M110.519 53.0445C110.298 53.22 110.278 53.5871 110.162 54.2617C110.023 55.0719 109.213 55.3383 109.019 55.2918L108.978 55.2652C108.938 55.1576 108.545 55.3435 108.415 55.6552L108.374 55.8206C108.343 56.2277 107.544 56.8107 106.843 56.8678C106.141 56.9248 105.798 57.7261 105.566 58.0437C105.333 58.3613 104.146 58.027 103.766 58.5426L103.629 58.7726C103.249 59.4874 102.504 61.2047 99.4354 63.0286L98.8279 63.3741L78.3118 74.5409C75.4997 76.0586 73.5137 77.0462 72.5312 77.3859C71.585 77.7133 70.6318 77.2071 70.2934 76.9146L70.1967 76.8169C69.9997 76.5663 69.7014 76.7007 69.2203 76.9082C68.9874 77.0086 68.7576 76.8512 68.5155 76.6852L71.0338 75.0423C72.9868 73.7858 74.4611 72.8834 75.4567 72.3351C77.614 71.1473 83.1763 68.7979 84.7915 67.8659C86.4068 66.9344 88.0397 66.9511 88.4665 66.7628C88.8934 66.5745 89.1499 65.1635 90.3986 65.235C91.5691 65.3022 91.0925 66.6923 92.0211 65.4333L92.2267 65.1449C93.4321 63.4064 94.088 64.1359 94.3212 64.0045C94.5544 63.8731 95.3165 63.319 95.2546 62.7395C95.1927 62.16 94.783 62.0532 95.7067 62.3454C96.6304 62.6375 98.1708 62.5776 98.1857 61.9008C98.2007 61.2244 97.4115 60.1721 98.7357 60.2745C100.06 60.3774 100.757 60.7346 101.213 60.4825C101.669 60.2303 101.344 60.2423 101.059 59.5794C100.774 58.9165 101.166 57.9935 101.829 57.9782C101.998 57.9742 102.177 57.9246 102.348 57.8459C102.48 57.9879 102.638 58.0261 102.826 57.9155C103.149 57.725 103.386 57.2023 103.561 56.5402C103.96 56.3811 104.747 56.3754 105.318 56.3157C106.125 56.2319 106.044 54.8296 107.185 55.2993C108.326 55.769 108.56 55.0251 108.573 53.7647C108.58 53.0935 109.229 52.8533 110.519 53.0445Z" fill="#B0B0B0"/>
<path d="M69.0085 75.8454C69.7082 76.1073 74.7203 73.5089 75.7925 73.2311C76.8648 72.9534 77.3596 73.7235 77.6093 73.3073C77.8586 72.8916 77.3561 72.4734 78.5482 72.1622L79.9256 71.7971C80.4599 71.6486 80.8778 71.5159 81.1312 71.3902L81.4533 71.2033C82.3656 70.6491 84.7624 69.1156 86.3697 68.4712L86.7538 68.3297C88.5783 67.7253 93.2361 64.8425 94.7772 64.5339C95.3464 64.4198 95.5988 64.6871 95.5784 65.1465L78.3127 74.5409C75.5006 76.0585 73.5146 77.0462 72.5321 77.3859C71.5859 77.7132 70.6327 77.2071 70.2943 76.9146L70.1976 76.8169C70.0006 76.5663 69.7023 76.7006 69.2212 76.9081C68.7401 77.1157 68.2713 76.2229 67.687 76.4242C67.1675 76.6033 66.5076 77.2288 65.9671 78.504L65.7707 79.0133C65.7097 79.187 65.642 79.3614 65.5672 79.5355C65.6587 78.3423 66.0189 77.0103 66.2804 76.7673C66.6362 76.4346 68.3088 75.5836 69.0085 75.8454Z" fill="#828282"/>
<path d="M103.692 58.661L103.342 59.315C102.858 60.1792 101.89 61.5703 99.4356 63.0291L98.828 63.3746L78.312 74.5414C75.4999 76.059 73.5139 77.0467 72.5315 77.3864C72.0517 77.5521 71.5702 77.5038 71.1678 77.3779C71.7412 77.1108 72.4216 76.7005 72.8356 76.2581C73.5608 75.4826 75.0653 74.3634 76.0477 74.1505L77.2822 73.909C77.8693 73.7795 78.3245 73.6142 78.256 73.3074C78.1418 72.7961 78.2362 72.5053 79.3021 72.3788L80.2129 72.2734C80.8123 72.1953 81.3837 72.0811 81.8572 71.8136L82.1925 71.5823C82.9268 70.9666 83.2411 71.4734 83.9393 70.8026L84.3646 70.3815C84.8066 69.9224 85.0323 69.5799 84.7685 69.4033C84.4295 69.176 85.7885 69.2792 86.0092 69.1198C86.1986 68.9835 86.1262 68.7393 86.4067 68.7485L86.5793 68.7759C87.0636 68.8975 87.8206 68.4821 87.4579 68.2978C87.1759 68.1546 87.3841 68.1639 87.9842 68.0511L88.5921 67.9183C89.566 67.6742 88.7443 68.2058 90.0177 67.4981L92.4793 66.125C93.017 65.8163 93.3734 65.5875 93.5193 65.4161L94.6692 64.0134C95.1851 63.5489 95.5391 63.3566 95.7312 63.4351L96.3774 63.7283C96.6889 63.8584 96.9698 63.9391 96.9057 63.7437L96.6656 63.1716C96.6002 62.9785 96.5933 62.8145 96.775 62.776L96.9488 62.7724C97.5885 62.8405 98.5942 62.2608 99.0286 62.0421C99.4629 61.8235 99.6223 62.1953 99.9316 61.7458C100.202 61.3529 100.249 60.7902 100.733 60.628L100.969 60.5846C101.679 60.543 102.896 59.762 103.056 59.2425C103.143 58.9583 103.308 58.8007 103.692 58.661Z" fill="#404040"/>
<path d="M61.752 78.02C64.5298 76.5294 64.9799 77.4552 65.1466 77.9478C65.208 78.1294 65.5243 79.1385 65.7851 78.9617L65.7693 79.0139C65.1995 80.6353 64.0285 82.3188 62.2682 83.2769L45.528 92.4295C44.7722 92.8408 44.095 93.1674 43.4299 93.4711L42.9104 92.9369C42.8727 92.9017 42.842 92.8748 42.8177 92.8553L42.1483 92.3915C41.7658 92.1157 41.3256 91.7486 41.0468 91.2937C40.6199 90.597 41.306 89.9549 43.4272 88.5128L44.4252 87.8435C47.3248 85.9138 58.9743 79.5105 61.752 78.02ZM57.1511 73.463C54.6497 75.5411 50.1342 78.6101 44.6171 82.2064L43.1763 83.1226C34.639 88.4301 20.1163 95.5684 17.2669 97.1349C14.3811 98.7214 15.3157 99.5331 17.767 99.0848C20.2183 98.6371 22.2792 97.9758 25.1525 96.9729L26.4212 96.5149C29.7748 95.2776 35.2574 93.3318 35.8653 93.2669C36.4673 93.203 36.5459 93.4479 36.9828 93.892C36.8564 93.8461 36.737 93.8224 36.6341 93.8265C36.213 93.8428 31.9066 95.8831 25.2183 98.5335C18.5305 101.184 14.2972 101.454 12.4301 101.326C10.563 101.196 9.19084 99.9601 9.57588 99.5622C9.95011 99.1754 21.8125 93.502 29.5726 89.4761L31.3185 88.5571C39.4497 84.2012 54.9676 74.9083 55.8782 74.3563L57.1511 73.463ZM70.5285 63.143C70.7663 63.9005 70.8415 64.4913 70.753 64.9154C70.5142 66.0625 68.9368 67.3355 68.3637 67.8261C67.7902 68.3166 68.4977 66.6333 68.1679 65.9327C68.0986 65.7855 67.684 65.866 67.0685 66.0984L68.5742 64.9455L69.6474 63.9711L70.5285 63.143Z" fill="#EDEDED"/>
<path d="M15.1549 98.3093L16.152 97.7654C16.2876 97.6937 16.4307 97.619 16.5808 97.541C14.5582 98.8554 15.5329 99.4932 17.7668 99.085C20.2181 98.6373 22.279 97.9759 25.1523 96.9731L31.0186 94.8561C33.3801 94.0221 35.5 93.3059 35.8651 93.2675C36.4627 93.2043 36.5447 93.4446 36.9724 93.8822C36.5124 93.7388 36.0993 93.6393 35.842 93.6707C34.9572 93.7789 19.0852 100.327 16.0867 100.397C13.0882 100.466 13.4617 99.286 15.1549 98.3093Z" fill="#E7E7E7"/>
<path d="M108.972 38.4239C109.109 38.8086 109.301 39.0998 109.49 39.1474C109.879 39.2445 111.226 39.9187 112.117 41.5789C112.272 41.869 112.412 42.1534 112.536 42.4332C111.963 41.89 111.573 42.1995 110.587 43.8789C109.476 45.7745 106.729 48.9931 105.773 50.083C105.136 50.8094 104.985 51.5247 104.937 52.288L104.837 54.7402C104.78 55.7902 104.666 56.8824 104.303 57.2172C103.841 57.6426 103.301 57.307 102.994 56.678L102.891 56.4295C102.616 55.6475 101.914 55.0138 101.469 54.8443C101.19 54.7383 100.246 55.4303 99.0093 56.4602L96.5483 58.5789C94.3788 60.4739 89.8451 63.8861 87.6462 65.3275L86.3999 66.1031C84.1068 67.4988 80.0827 69.89 79.4738 70.4478L78.6132 71.201C77.7577 71.9329 76.7074 72.7986 76.9418 72.5192L77.1729 72.2781C78.2867 71.1757 77.7868 70.899 78.8255 70.0737C79.864 69.2479 85.2494 65.9624 88.0967 64.043L88.9004 63.4804C92.0103 61.2416 98.0048 56.368 99.2533 55.2073L99.3984 55.0674C100.289 54.1613 101.295 53.663 102.247 54.1126C103.198 54.5617 103.746 56.717 103.881 55.8907C104.017 55.0644 103.985 51.3797 104.22 50.5211C104.455 49.6625 110.619 43.3396 110.542 42.0779C110.465 40.8162 109.135 40.3727 108.853 39.975C108.736 39.8091 108.741 39.5216 108.804 39.163L108.972 38.4239Z" fill="#C8C8C8"/>
<path d="M105.894 35.1518L105.871 35.0378L106.524 35.0444C106.802 35.0564 107.003 35.082 107.107 35.1228C108.113 35.5225 108.874 36.22 108.787 37.0713C108.7 37.9226 109.1 39.0505 109.489 39.1476C109.777 39.2195 110.587 39.6061 111.35 40.4726L111.258 40.9485L111.232 41.1598C111.193 41.8288 110.673 42.8614 110.087 43.9109C109.543 44.8853 106.72 48.2048 105.61 49.4425L105.387 49.6892C104.5 50.6487 104.4 51.04 104.332 52.5265C104.265 54.0131 104.401 55.3286 104.072 56.4164C103.742 57.5042 103.249 56.6293 103.209 56.2056C103.168 55.7819 102.452 54.9324 101.808 54.5483C101.207 54.1898 100.6 54.5519 98.6488 56.2612L98.2095 56.6482C95.9058 58.6895 91.063 62.3605 88.9492 63.841L88.185 64.3515C85.7024 65.9524 81.165 68.4635 83.0814 67.1619L87.0106 64.5034C89.1052 63.0667 91.4283 61.4182 93.0373 60.0732L94.2553 59.0488C96.4969 57.1502 98.7226 55.1832 99.8757 53.8983L100.702 52.9348C102.643 50.7114 108.513 43.9036 109.501 42.3378C110.605 40.5876 109.293 40.1251 108.835 40.7915L107.568 42.3187C105.989 44.4278 102.095 49.4793 98.881 53.048C94.9366 57.4275 88.1813 62.668 87.6013 62.2814C87.0217 61.8949 96.5392 52.8156 98.4856 50.5777L98.9945 49.9758C101.413 47.0571 107.312 39.3093 107.533 38.2861C107.772 37.1809 106.52 36.0595 106.022 35.3893C105.967 35.315 105.925 35.2354 105.894 35.1518Z" fill="#E7E7E7"/>
<path d="M78.2957 54.7327L78.1349 55.2103L75.6657 58.405C74.0755 60.4361 72.9707 61.7812 72.3507 62.4405C71.1673 63.6994 69.8888 64.5439 68.9257 65.245L63.0374 69.7479C60.6964 71.5237 58.2673 73.3361 57.1736 74.0543L55.6256 75.0238C53.2313 76.5369 48.8386 79.3502 43.9343 82.1575L41.2978 83.6431C34.4129 87.4779 22.2998 93.9628 16.761 96.4949L15.4672 97.0782C12.8615 98.2355 11.4973 98.7216 10.6113 98.9783L15.4169 96.5694C19.289 94.652 24.4035 92.1345 28.5891 89.983L31.3175 88.557C39.4487 84.2011 54.9666 74.9082 55.8773 74.3562L56.5075 73.9241C59.0867 72.0927 67.9843 65.4405 68.5728 64.9462C69.2323 64.3927 72.1411 61.6317 72.9985 60.7033L78.2957 54.7327ZM95.227 36.412C95.911 35.8019 106.102 34.7227 107.108 35.1225C108.114 35.5222 108.875 36.2197 108.788 37.071C108.727 37.6724 108.908 38.4114 109.157 38.8281C108.956 38.7606 108.822 38.6637 108.814 38.5096C108.787 37.9196 108.136 37.2079 107.567 36.8282C107.15 36.5494 105.943 38.2816 105.287 39.3001L104.854 39.9967C104.746 40.1858 104.35 40.0808 102.626 39.5179C100.902 38.9549 98.0079 38.7123 97.7978 38.6843C97.5877 38.6558 96.667 39.6834 94.1772 43.2897L93.5943 44.0926C90.6092 48.0522 83.0066 56.4068 81.7303 57.7203L81.6153 57.8368C80.7345 58.6995 80.4309 59.0058 80.0107 58.7087C79.6325 58.4417 79.3685 57.8892 79.4659 56.641L79.5122 56.1984C79.6073 55.4592 79.5853 54.5434 79.4467 53.4519L93.123 38.631C94.2818 37.3868 95.0755 36.5471 95.227 36.412Z" fill="#ECECEC"/>
<path d="M62.2883 81.0142C62.8202 80.9746 62.912 81.8135 63.3455 81.509C63.779 81.2045 63.7153 80.5522 64.3146 80.3576C64.6577 80.2461 65.0333 80.1296 65.2895 80.1786C65.145 80.5357 64.8547 80.9239 64.3784 81.3701C63.1692 82.5025 60.7125 84.1156 58.1547 85.5507L44.5739 92.9494C44.398 93.0453 43.223 92.9895 43.1049 92.9509C43.0431 92.9308 42.8248 92.541 42.6309 92.0907L42.7724 92.1627C43.0577 92.2842 43.6244 92.4463 44.4727 92.6504C43.7446 91.982 43.5759 91.6671 43.9657 91.7049C44.5506 91.7616 45.3612 92.2745 45.6236 91.9367C45.8861 91.5993 45.9058 90.661 46.3139 90.6163C46.7221 90.5716 47.869 90.654 48.1502 90.4046C48.4315 90.1552 48.791 88.6554 49.247 88.6439L49.9473 88.6417C50.4081 88.6237 50.9332 88.5384 51.2498 88.1944C51.7568 87.6434 52.6004 86.2485 52.9297 86.4212C53.2586 86.5944 53.3014 86.8647 53.286 87.086C53.2707 87.3072 54.1056 86.3759 54.2568 86.1027C54.3889 85.8633 54.2272 85.3436 54.6596 85.205L54.8839 85.171C55.5142 85.1549 56.2984 84.5547 56.5191 84.7344L56.5742 84.8411C56.6515 85.287 57.6914 84.1617 57.9517 84.2808C58.2119 84.3999 58.8337 84.4402 59.0503 83.9482C59.2669 83.4558 59.8314 82.5495 60.2639 82.4289C60.6965 82.3083 61.1647 82.6854 61.2993 82.4833C61.4331 82.2808 61.7564 81.0538 62.2883 81.0142Z" fill="#727272"/>
<path d="M61.9576 82.5187C62.1522 82.491 62.3744 82.4508 62.608 82.3729L62.9651 82.2245L63.3467 81.9999C63.6629 81.7975 64.1029 81.4896 64.6668 81.0767L64.3771 81.37C63.1679 82.5024 60.7112 84.1155 58.1534 85.5505L44.5726 92.9493C44.4682 93.0061 44.0111 93.0096 43.6323 92.9949C43.9743 92.8884 44.2827 92.7376 44.3513 92.6194L44.4714 92.6503L44.3455 92.5337C44.1999 92.3593 44.7736 92.2433 44.9909 92.1726L45.0644 92.1406C45.0913 92.1182 45.193 92.0894 45.3181 92.0504C45.4454 92.0549 45.548 92.0265 45.6163 91.9448C45.7729 91.8738 45.9058 91.786 45.9254 91.6721C45.9738 91.3917 46.6313 91.4327 46.9943 91.2856C47.3573 91.1388 49.7608 89.7779 50.5035 89.3755C51.2462 88.9732 51.3777 88.7991 51.9516 88.2203C52.5255 87.642 52.5473 88.0681 52.81 87.9241C53.0727 87.78 53.7057 87.1923 53.9054 86.9324C54.0653 86.7245 54.5143 86.5742 54.9042 86.5018L55.18 86.4625C55.603 86.4228 55.9648 86.335 56.7043 85.8037C57.4443 85.2723 57.378 84.9772 58.0498 84.676C58.6257 84.4178 58.892 84.4463 59.0378 84.3738L59.1015 84.3273C59.2307 84.1915 60.0305 83.7757 60.2829 83.4598C60.4795 83.2135 61.0491 82.7252 61.2259 82.6882C61.3439 82.6643 61.5875 82.6076 61.9576 82.5187Z" fill="#1A0855"/>
<path d="M18.5756 98.4688C19.9454 97.6196 37.1235 90.0848 36.9391 90.449C36.7546 90.8136 32.4665 92.994 27.4518 95.2809C22.4372 97.5681 17.2054 99.3181 18.5756 98.4688Z" fill="#D4D5D5"/>
<path d="M18.6341 98.6602C21.0568 97.6422 22.8147 96.891 23.9077 96.4066C29.5341 93.9117 33.7803 91.9427 36.6547 90.6632C36.2194 90.9799 35.534 91.3719 34.5983 91.8392C33.1945 92.5402 30.9141 93.7026 27.4517 95.2815L26.4134 95.7462C22.9483 97.2695 19.6037 98.4679 18.6341 98.6602Z" fill="#EDEDED"/>
<path d="M41.2181 89.3687C41.21 89.2102 40.9026 88.0839 44.0745 86.0725C47.2463 84.061 56.7349 78.7165 58.0148 78.2451C59.2942 77.7738 48.6543 83.8609 47.2683 84.7052C45.8828 85.5495 43.2779 87.0769 42.7708 87.5501C42.2636 88.0229 41.2266 89.5267 41.2181 89.3687Z" fill="#F1F1F1"/>
<path d="M63.3497 75.8672C62.6228 75.3782 61.4931 75.1038 60.2057 75.9356C59.3473 76.4899 58.6804 76.6471 58.2044 76.407C58.3927 77.0622 58.807 77.3572 59.4479 77.2922C60.4093 77.1946 60.891 76.1083 61.799 76.0125C62.7066 75.9161 64.0766 76.3562 63.3497 75.8672Z" fill="#D0D0D0"/>
<path d="M67.9369 74.2948C67.8065 73.4485 68.8949 72.6054 69.8586 71.3534C70.8227 70.1014 71.3778 69.0637 71.1415 68.2283C70.9052 67.393 71.765 68.0091 71.7484 69.0601C71.7318 70.1116 70.9914 70.8997 70.2226 71.7638C69.4542 72.6279 68.6207 73.1932 67.9369 74.2948Z" fill="#D0D0D0"/>
<path d="M92.4985 59.5107C89.8736 61.849 83.9846 65.8752 84.6444 65.6746C85.3037 65.4741 91.5281 61.6425 95.8946 57.7764C100.261 53.9103 104.558 48.159 103.598 48.646C102.639 49.1329 99.0105 53.4368 97.0796 55.2574C95.1486 57.078 95.1235 57.1728 92.4985 59.5107Z" fill="#CFD1D2"/>
<path d="M98.2987 28.4805C98.9875 29.1222 99.8451 30.7228 101.634 31.8166C103.423 32.9105 104.26 33.0461 105.334 33.6753C106.409 34.305 107.215 34.8495 107.246 35.3751C107.266 35.7086 106.351 37.0899 105.632 38.1333C102.137 36.596 99.6974 35.6354 98.3153 35.251C95.8171 34.5567 93.0098 34.6887 92.5506 34.5416C92.14 34.4101 91.9472 34.1356 91.97 33.6973C92.231 33.7125 92.5394 33.5297 92.9002 33.1281C93.9262 31.9852 95.3748 29.8505 96.1869 29.2266L96.8712 28.6686C97.3731 28.2707 97.8166 28.031 98.2987 28.4805Z" fill="#7756D3"/>
<path d="M58.5683 76.5295C57.9843 76.2447 58.6623 75.3839 60.6016 73.9466C63.5106 71.7909 69.4409 68.2685 69.9851 67.9973C70.5294 67.7267 71.042 67.9827 71.0805 67.8875C71.119 67.7923 70.6562 67.1894 69.8932 67.4979C69.1302 67.8065 63.0812 71.4955 60.2515 73.5785C58.365 74.9673 57.6825 75.9097 58.2049 76.4059L58.5683 76.5295Z" fill="#E6E6E6"/>
</g>
<defs>
<clipPath id="clip0_43_6606">
<rect width="111.321" height="99.6505" fill="white" transform="translate(0 3.5038) scale(1.00536) rotate(-1.79403)"/>
</clipPath>
</defs>
</svg>
