<svg width="64" height="64" viewBox="0 0 64 64" fill="none" xmlns="http://www.w3.org/2000/svg">
<g filter="url(#filter0_d_43_6934)">
<path d="M4 24C4 16.5449 4 12.8174 5.21793 9.87706C6.84183 5.95662 9.95662 2.84183 13.8771 1.21793C16.8174 0 20.5449 0 28 0H36C43.4551 0 47.1826 0 50.1229 1.21793C54.0434 2.84183 57.1582 5.95662 58.7821 9.87706C60 12.8174 60 16.5449 60 24V32C60 39.4551 60 43.1826 58.7821 46.1229C57.1582 50.0434 54.0434 53.1582 50.1229 54.7821C47.1826 56 43.4551 56 36 56H28C20.5449 56 16.8174 56 13.8771 54.7821C9.95662 53.1582 6.84183 50.0434 5.21793 46.1229C4 43.1826 4 39.4551 4 32V24Z" fill="white"/>
</g>
<defs>
<filter id="filter0_d_43_6934" x="0" y="0" width="64" height="64" filterUnits="userSpaceOnUse" color-interpolation-filters="sRGB">
<feFlood flood-opacity="0" result="BackgroundImageFix"/>
<feColorMatrix in="SourceAlpha" type="matrix" values="0 0 0 0 0 0 0 0 0 0 0 0 0 0 0 0 0 0 127 0" result="hardAlpha"/>
<feOffset dy="4"/>
<feGaussianBlur stdDeviation="2"/>
<feComposite in2="hardAlpha" operator="out"/>
<feColorMatrix type="matrix" values="0 0 0 0 0 0 0 0 0 0 0 0 0 0 0 0 0 0 0.02 0"/>
<feBlend mode="normal" in2="BackgroundImageFix" result="effect1_dropShadow_43_6934"/>
<feBlend mode="normal" in="SourceGraphic" in2="effect1_dropShadow_43_6934" result="shape"/>
</filter>
</defs>
</svg>
