<svg width="16" height="22" viewBox="0 0 16 22" fill="none" xmlns="http://www.w3.org/2000/svg">
<path d="M7.80839 10.7108C7.77741 10.7108 7.75675 10.7108 7.72576 10.7108C7.67412 10.7004 7.60182 10.7004 7.53985 10.7108C4.54455 10.6178 2.28258 8.26289 2.28258 5.36055C2.28258 2.40657 4.68915 0 7.64313 0C10.5971 0 13.0037 2.40657 13.0037 5.36055C12.9934 8.26289 10.7211 10.6178 7.83938 10.7108C7.82905 10.7108 7.81872 10.7108 7.80839 10.7108ZM7.64313 1.54929C5.54643 1.54929 3.83188 3.26384 3.83188 5.36055C3.83188 7.42627 5.44314 9.08918 7.49853 9.16148C7.55018 9.15115 7.69478 9.15115 7.82905 9.16148C9.85346 9.06852 11.4441 7.40562 11.4544 5.36055C11.4544 3.26384 9.73984 1.54929 7.64313 1.54929Z" fill="#707B81"/>
<path d="M7.81876 21.9999C5.79435 21.9999 3.75962 21.4835 2.22065 20.4507C0.784975 19.5004 0 18.199 0 16.784C0 15.369 0.784975 14.0572 2.22065 13.0967C5.31924 11.0413 10.3389 11.0413 13.4169 13.0967C14.8422 14.0469 15.6375 15.3483 15.6375 16.7633C15.6375 18.1784 14.8525 19.4901 13.4169 20.4507C11.8676 21.4835 9.84317 21.9999 7.81876 21.9999ZM3.07793 14.3981C2.08638 15.0591 1.54929 15.9061 1.54929 16.7943C1.54929 17.6723 2.09671 18.5192 3.07793 19.1699C5.64975 20.8948 9.98777 20.8948 12.5596 19.1699C13.5511 18.5089 14.0882 17.6619 14.0882 16.7737C14.0882 15.8957 13.5408 15.0488 12.5596 14.3981C9.98777 12.6835 5.64975 12.6835 3.07793 14.3981Z" fill="#707B81"/>
</svg>
