<svg width="20" height="20" viewBox="0 0 20 20" fill="none" xmlns="http://www.w3.org/2000/svg">
<path d="M18.9672 13.8146L18.3113 13.4129V13.4129L18.9672 13.8146ZM17.9883 15.4132L18.6442 15.8149V15.8149L17.9883 15.4132ZM1.03279 6.1834L0.376841 5.78173H0.376841L1.03279 6.1834ZM2.01171 4.58474L2.66766 4.9864L2.01171 4.58474ZM4.68619 3.90907L5.05393 3.23352L5.05393 3.23352L4.68619 3.90907ZM1.74941 8.70504L1.38167 9.38059H1.38167L1.74941 8.70504ZM15.3138 16.0889L14.9461 16.7645L14.9461 16.7645L15.3138 16.0889ZM18.2506 11.2929L17.8829 11.9685V11.9685L18.2506 11.2929ZM2.01171 15.4133L1.35577 15.8149L1.35577 15.8149L2.01171 15.4133ZM1.03278 13.8146L1.68873 13.4129L1.68873 13.4129L1.03278 13.8146ZM17.9883 4.58476L18.6442 4.18309L17.9883 4.58476ZM18.9672 6.18341L18.3113 6.58507V6.58507L18.9672 6.18341ZM18.2506 8.70505L18.6183 9.3806L18.2506 8.70505ZM15.3138 3.90908L15.6816 4.58463V4.58463L15.3138 3.90908ZM1.74941 11.293L2.11715 11.9685H2.11715L1.74941 11.293ZM4.68619 16.0889L4.31845 15.4134L4.31845 15.4134L4.68619 16.0889ZM15.2097 3.96573L14.842 3.29018L15.2097 3.96573ZM4.79027 3.96572L4.42253 4.64127L4.42253 4.64127L4.79027 3.96572ZM15.2097 16.0323L15.5775 15.3567L15.5775 15.3567L15.2097 16.0323ZM4.79027 16.0323L5.158 16.7078L5.158 16.7078L4.79027 16.0323ZM9.02107 1.53831H10.9789V0H9.02107V1.53831ZM10.9789 18.4597H9.02107V19.998H10.9789V18.4597ZM9.02107 18.4597C8.3213 18.4597 7.83237 17.9356 7.83237 17.3829H6.29407C6.29407 18.8692 7.55826 19.998 9.02107 19.998V18.4597ZM12.1676 17.3829C12.1676 17.9356 11.6787 18.4597 10.9789 18.4597V19.998C12.4417 19.998 13.7059 18.8692 13.7059 17.3829H12.1676ZM10.9789 1.53831C11.6787 1.53831 12.1676 2.06243 12.1676 2.61512H13.7059C13.7059 1.12882 12.4417 0 10.9789 0V1.53831ZM9.02107 0C7.55826 0 6.29407 1.12882 6.29407 2.61512H7.83237C7.83237 2.06243 8.3213 1.53831 9.02107 1.53831V0ZM18.3113 13.4129L17.3323 15.0116L18.6442 15.8149L19.6232 14.2162L18.3113 13.4129ZM1.68873 6.58506L2.66766 4.9864L1.35577 4.18308L0.376841 5.78173L1.68873 6.58506ZM2.66766 4.9864C2.98418 4.4695 3.72427 4.26117 4.31845 4.58462L5.05393 3.23352C3.77526 2.53747 2.12054 2.93415 1.35577 4.18308L2.66766 4.9864ZM2.11715 8.02949C1.54696 7.7191 1.38989 7.0731 1.68873 6.58506L0.376841 5.78173C-0.405606 7.05952 0.0790057 8.67147 1.38167 9.38059L2.11715 8.02949ZM17.3323 15.0116C17.0158 15.5285 16.2757 15.7368 15.6816 15.4134L14.9461 16.7645C16.2247 17.4605 17.8795 17.0638 18.6442 15.8149L17.3323 15.0116ZM19.6232 14.2163C20.4056 12.9385 19.921 11.3265 18.6183 10.6174L17.8829 11.9685C18.453 12.2789 18.6101 12.9249 18.3113 13.4129L19.6232 14.2163ZM2.66766 15.0116L1.68873 13.4129L0.37684 14.2163L1.35577 15.8149L2.66766 15.0116ZM17.3323 4.98642C17.6027 5.42788 17.8474 5.82754 18.0245 6.11684C18.1131 6.26149 18.1848 6.37855 18.2343 6.45944C18.2591 6.49989 18.2783 6.5313 18.2914 6.55259C18.2979 6.56324 18.3029 6.57136 18.3062 6.57682C18.3079 6.57955 18.3091 6.58161 18.31 6.58299C18.3104 6.58368 18.3107 6.5842 18.3109 6.58455C18.3111 6.58472 18.3111 6.58486 18.3112 6.58494C18.3112 6.58499 18.3112 6.58502 18.3112 6.58504C18.3113 6.58505 18.3113 6.58506 18.3113 6.58507C18.3113 6.58507 18.3113 6.58507 18.9672 6.18341C19.6232 5.78175 19.6232 5.78175 19.6232 5.78174C19.6232 5.78173 19.6231 5.78173 19.6231 5.78172C19.6231 5.78169 19.6231 5.78166 19.6231 5.78162C19.623 5.78153 19.6229 5.7814 19.6228 5.78123C19.6226 5.78088 19.6223 5.78036 19.6219 5.77967C19.621 5.77829 19.6198 5.77622 19.6181 5.77349C19.6148 5.76804 19.6098 5.75992 19.6033 5.74927C19.5902 5.72797 19.571 5.69657 19.5462 5.65612C19.4967 5.57522 19.425 5.45816 19.3364 5.31351C19.1593 5.02421 18.9146 4.62455 18.6442 4.18309L17.3323 4.98642ZM18.3113 6.58507C18.6101 7.07311 18.453 7.71912 17.8829 8.0295L18.6183 9.3806C19.921 8.67148 20.4056 7.05954 19.6232 5.78175L18.3113 6.58507ZM15.6816 4.58463C16.2757 4.26118 17.0158 4.46952 17.3323 4.98642L18.6442 4.18309C17.8795 2.93417 16.2247 2.53748 14.9461 3.23354L15.6816 4.58463ZM1.68873 13.4129C1.38988 12.9249 1.54696 12.2789 2.11715 11.9685L1.38167 10.6174C0.0790039 11.3265 -0.405607 12.9385 0.37684 14.2163L1.68873 13.4129ZM1.35577 15.8149C2.12054 17.0638 3.77526 17.4605 5.05393 16.7645L4.31845 15.4134C3.72427 15.7368 2.98418 15.5285 2.66766 15.0116L1.35577 15.8149ZM15.5775 4.64128L15.6816 4.58463L14.9461 3.23354L14.842 3.29018L15.5775 4.64128ZM4.31845 4.58462L4.42253 4.64127L5.15801 3.29018L5.05393 3.23352L4.31845 4.58462ZM15.6816 15.4134L15.5775 15.3567L14.842 16.7078L14.9461 16.7645L15.6816 15.4134ZM4.42253 15.3567L4.31845 15.4134L5.05392 16.7645L5.158 16.7078L4.42253 15.3567ZM1.38167 9.38059C1.87162 9.64729 1.87162 10.3507 1.38167 10.6174L2.11715 11.9685C3.67754 11.1191 3.67754 8.8789 2.11715 8.02949L1.38167 9.38059ZM5.158 16.7078C5.67016 16.429 6.29407 16.7998 6.29407 17.3829H7.83237C7.83237 15.6327 5.95974 14.5199 4.42253 15.3567L5.158 16.7078ZM13.7059 17.3829C13.7059 16.7997 14.3298 16.429 14.842 16.7078L15.5775 15.3567C14.0403 14.5199 12.1676 15.6327 12.1676 17.3829H13.7059ZM18.6183 10.6174C18.1284 10.3507 18.1284 9.6473 18.6183 9.3806L17.8829 8.0295C16.3225 8.87891 16.3225 11.1191 17.8829 11.9685L18.6183 10.6174ZM4.42253 4.64127C5.95974 5.47806 7.83237 4.36533 7.83237 2.61512H6.29407C6.29407 3.19824 5.67016 3.56897 5.15801 3.29018L4.42253 4.64127ZM14.842 3.29018C14.3298 3.56898 13.7059 3.19825 13.7059 2.61512H12.1676C12.1676 4.36534 14.0403 5.47808 15.5775 4.64128L14.842 3.29018ZM12.3075 9.999C12.3075 11.2734 11.2744 12.3065 10 12.3065V13.8448C12.124 13.8448 13.8458 12.123 13.8458 9.999H12.3075ZM10 12.3065C8.72563 12.3065 7.69255 11.2734 7.69255 9.999H6.15424C6.15424 12.123 7.87605 13.8448 10 13.8448V12.3065ZM7.69255 9.999C7.69255 8.72462 8.72563 7.69154 10 7.69154V6.15323C7.87605 6.15323 6.15424 7.87504 6.15424 9.999H7.69255ZM10 7.69154C11.2744 7.69154 12.3075 8.72462 12.3075 9.999H13.8458C13.8458 7.87504 12.124 6.15323 10 6.15323V7.69154Z" fill="white"/>
</svg>
