<svg width="16" height="17" viewBox="0 0 16 17" fill="none" xmlns="http://www.w3.org/2000/svg">
<path fill-rule="evenodd" clip-rule="evenodd" d="M9.51608 3.40323C9.56236 3.12864 9.59722 2.85717 9.61974 2.58566C9.65368 2.17841 9.6327 1.76804 9.64473 1.36078C9.64998 1.188 9.67065 0.737561 9.66232 0.67277C9.58673 0.108165 9.13104 0.0217666 8.99776 0.00634026C8.93327 -0.00291556 8.27118 -0.0769291 8.12833 0.657366C7.95309 1.55518 7.89693 2.45915 7.95894 3.34463C7.81424 4.09743 7.5668 4.84714 7.24007 5.5259C5.93994 8.22551 3.46247 8.48777 0.778283 8.46309C0.365474 8.45692 0.0226861 8.78086 0.00108943 9.19121C-0.0205072 9.60463 0.286785 9.96252 0.697743 9.99955C2.19811 10.1446 4.8601 11.3478 5.78044 12.6004C5.97296 12.8627 6.08495 13.4952 6.23304 14.1153C6.43976 14.9761 6.68565 15.8276 6.96116 16.1855C7.00251 16.2411 7.5051 16.8088 7.65505 16.8921C8.01541 17.0895 8.30387 16.9754 8.4677 16.8705C8.63153 16.7656 8.81696 16.5588 8.891 16.2164C8.96844 15.8585 8.90304 15.1242 8.91507 14.9668C8.95888 14.3961 9.07303 13.2761 9.30596 12.3135C9.43153 11.7952 9.56544 11.317 9.78696 11.0794C10.607 10.2001 11.9183 10.3297 13.0225 10.4747C13.1493 10.4901 13.2761 10.5086 13.4026 10.5241C13.8521 10.6567 14.3294 10.7554 14.8339 10.8141C15.5956 10.9035 15.7209 10.2032 15.7277 10.1569C15.7419 10.0551 15.7946 9.5306 15.2204 9.3208C15.1578 9.2992 14.6956 9.19738 14.5176 9.15727C14.2696 9.10174 14.0187 9.05856 13.767 9.01845C11.1664 8.21011 9.75396 5.93932 9.51608 3.40323ZM8.62351 6.20777C7.64178 8.23788 6.1519 9.21898 4.38589 9.66326C5.48857 10.2402 6.4919 10.9622 7.02349 11.6872C7.22527 11.9618 7.41038 12.5141 7.5773 13.1342C7.66769 12.5572 7.78986 11.9433 7.95122 11.4188C8.1348 10.8202 8.38194 10.3235 8.65776 10.0273C9.19028 9.45656 9.85855 9.13878 10.5771 8.98143C9.71694 8.21937 9.0647 7.2691 8.62351 6.20777Z" fill="black" fill-opacity="0.26"/>
</svg>
