<svg width="18" height="22" viewBox="0 0 18 22" fill="none" xmlns="http://www.w3.org/2000/svg">
<path d="M15.298 7.93336L14.4418 8.03054L15.298 7.93336ZM15.7514 11.9279L16.6077 11.8307V11.8307L15.7514 11.9279ZM2.19304 11.9279L1.33678 11.8307L2.19304 11.9279ZM2.64641 7.93336L3.50267 8.03054L2.64641 7.93336ZM1.31558 13.9118L0.659377 13.3533H0.659377L1.31558 13.9118ZM16.6289 13.9118L15.9727 14.4704V14.4704L16.6289 13.9118ZM11.2736 3.26821H10.4118C10.4118 3.63656 10.6459 3.96418 10.9944 4.0835L11.2736 3.26821ZM6.67089 3.26821L6.95003 4.0835C7.29852 3.96418 7.53264 3.63656 7.53264 3.26821H6.67089ZM12.8206 19.413C12.9877 18.9674 12.7618 18.4707 12.3161 18.3037C11.8705 18.1366 11.3738 18.3625 11.2068 18.8082L12.8206 19.413ZM6.73768 18.8082C6.57066 18.3625 6.07398 18.1366 5.62832 18.3037C5.18265 18.4707 4.95677 18.9674 5.1238 19.413L6.73768 18.8082ZM14.8293 16.2212H3.11515V17.9447H14.8293V16.2212ZM14.4418 8.03054L14.8951 12.0251L16.6077 11.8307L16.1543 7.83618L14.4418 8.03054ZM3.0493 12.0251L3.50267 8.03054L1.79016 7.83618L1.33678 11.8307L3.0493 12.0251ZM1.97179 14.4704C2.56947 13.7683 2.94734 12.9234 3.0493 12.0251L1.33678 11.8307C1.27543 12.3713 1.04643 12.8986 0.659377 13.3533L1.97179 14.4704ZM14.8951 12.0251C14.9971 12.9234 15.375 13.7683 15.9727 14.4704L17.2851 13.3533C16.898 12.8986 16.669 12.3713 16.6077 11.8307L14.8951 12.0251ZM3.11515 16.2212C2.48609 16.2212 2.05076 15.9111 1.85265 15.562C1.66305 15.2279 1.66474 14.8311 1.97179 14.4704L0.659377 13.3533C-0.145777 14.2991 -0.171129 15.4879 0.35369 16.4127C0.870005 17.3225 1.89056 17.9447 3.11515 17.9447V16.2212ZM14.8293 17.9447C16.0539 17.9447 17.0744 17.3225 17.5908 16.4127C18.1156 15.4879 18.0902 14.2991 17.2851 13.3533L15.9727 14.4704C16.2797 14.8311 16.2814 15.2279 16.0918 15.562C15.8937 15.9111 15.4584 16.2212 14.8293 16.2212V17.9447ZM12.1353 3.26821V3.16306H10.4118V3.26821H12.1353ZM16.1543 7.83618C15.866 5.29642 13.9836 3.28522 11.5527 2.45292L10.9944 4.0835C12.9076 4.73855 14.2411 6.26244 14.4418 8.03054L16.1543 7.83618ZM7.53264 3.26821V3.16306H5.80914V3.26821H7.53264ZM3.50267 8.03054C3.70334 6.26244 5.03685 4.73855 6.95003 4.0835L6.39174 2.45292C3.96089 3.28522 2.07841 5.29642 1.79016 7.83618L3.50267 8.03054ZM8.97222 1.72348C9.76728 1.72348 10.4118 2.368 10.4118 3.16306H12.1353C12.1353 1.41614 10.7191 -2.47758e-05 8.97222 -2.47758e-05V1.72348ZM8.97222 -2.47758e-05C7.2253 -2.47758e-05 5.80914 1.41614 5.80914 3.16306H7.53264C7.53264 2.368 8.17716 1.72348 8.97222 1.72348V-2.47758e-05ZM11.2068 18.8082C10.895 19.6401 10.0312 20.2765 8.97222 20.2765V22C10.7216 22 12.247 20.9438 12.8206 19.413L11.2068 18.8082ZM8.97222 20.2765C7.91326 20.2765 7.04946 19.6401 6.73768 18.8082L5.1238 19.413C5.69747 20.9438 7.22282 22 8.97222 22V20.2765Z" fill="white"/>
</svg>
