<svg width="7" height="6" viewBox="0 0 7 6" fill="none" xmlns="http://www.w3.org/2000/svg">
<path fill-rule="evenodd" clip-rule="evenodd" d="M5.00615 1.30337L1.99028 4.13455C1.85167 4.26453 1.62596 4.26453 1.48734 4.13455C1.34873 4.00457 1.34873 3.79294 1.48734 3.66296L4.50321 0.831779C4.64183 0.701801 4.86753 0.701801 5.00615 0.831779C5.07546 0.896768 5.111 0.981754 5.111 1.06674C5.111 1.15339 5.07546 1.23838 5.00615 1.30337ZM6.13781 0.950255L5.38251 0.243709C5.03596 -0.0812362 4.4726 -0.0812362 4.12605 0.243709L0.888041 3.28486C0.786742 3.37818 0.712101 3.49482 0.667672 3.62313L0.0172265 5.56614C-0.0698549 5.82276 0.187835 6.06439 0.46152 5.9844L2.53726 5.37284C2.67232 5.33284 2.79672 5.26286 2.89802 5.16787L6.13781 2.12672C6.48436 1.80178 6.48436 1.2752 6.13781 0.950255Z" fill="white"/>
</svg>
