<svg width="22" height="19" viewBox="0 0 22 19" fill="none" xmlns="http://www.w3.org/2000/svg">
<path d="M17.8602 15.3962C18.4936 16.0296 18.4936 17.0559 17.8602 17.6883C17.2268 18.3217 16.2004 18.3217 15.5681 17.6883C14.9347 17.0549 14.9347 16.0286 15.5681 15.3962C16.2015 14.7628 17.2278 14.7628 17.8602 15.3962" stroke="white" stroke-width="1.5" stroke-linecap="round" stroke-linejoin="round"/>
<path d="M6.60422 15.3959C7.23761 16.0293 7.23761 17.0557 6.60422 17.688C5.97082 18.3214 4.94449 18.3214 4.31212 17.688C3.67975 17.0546 3.67873 16.0283 4.31212 15.3959C4.94552 14.7636 5.97082 14.7625 6.60422 15.3959" stroke="white" stroke-width="1.5" stroke-linecap="round" stroke-linejoin="round"/>
<path d="M8.95349 0.767442H13.0465C13.6113 0.767442 14.0698 1.22586 14.0698 1.7907V12.0233H0.767442" stroke="white" stroke-width="1.5" stroke-linecap="round" stroke-linejoin="round"/>
<path d="M3.83721 16.542H1.7907C1.22586 16.542 0.767442 16.0835 0.767442 15.5187V9.97674" stroke="white" stroke-width="1.5" stroke-linecap="round" stroke-linejoin="round"/>
<path d="M14.0698 3.83721H18.4933C18.9118 3.83721 19.2884 4.092 19.4429 4.48084L21.0862 8.58819C21.1824 8.82967 21.2326 9.08754 21.2326 9.34744V15.4338C21.2326 15.9986 20.7741 16.457 20.2093 16.457H18.3357" stroke="white" stroke-width="1.5" stroke-linecap="round" stroke-linejoin="round"/>
<path d="M15.0929 16.5461H7.08085" stroke="white" stroke-width="1.5" stroke-linecap="round" stroke-linejoin="round"/>
<path d="M21.2326 11H17.1395V6.90698H20.414" stroke="white" stroke-width="1.5" stroke-linecap="round" stroke-linejoin="round"/>
<path d="M0.767442 0.767442H5.88372" stroke="white" stroke-width="1.5" stroke-linecap="round" stroke-linejoin="round"/>
<path d="M0.767442 3.83721H3.83721" stroke="white" stroke-width="1.5" stroke-linecap="round" stroke-linejoin="round"/>
<path d="M1.7907 6.90698H0.767442" stroke="white" stroke-width="1.5" stroke-linecap="round" stroke-linejoin="round"/>
</svg>
